<svg xmlns="http://www.w3.org/2000/svg" width="1200" height="1200" viewBox="0 0 1200 1200">
  <defs>
    <style>
      .a {
        fill: #00aced;
      }

      .b {
        fill: #fff;
        stroke: #000;
        stroke-miterlimit: 10;
      }
    </style>
  </defs>
  <g>
    <circle class="a" cx="600" cy="600" r="600"/>
    <path class="b" d="M1120.7,557.2c0-49-37.9-86.9-86.8-86.9q-147.8,0-295.5-.3c-2.4,0-7-4.8-7-7.3-.4-98.5-.3-197-.3-295.5,0-41.6-31.3-79.9-72.6-83.8C625,80.2,590.9,81.2,557.2,82c-50.7,1.1-86.1,38.6-86.1,89.3,0,97.5.1,195-.2,292.5-.1,2.2-4,6.2-6.2,6.2q-148.6.5-297.4.3c-42.3,0-80.1,30.8-84,72.7-3.1,32.9-1.3,66.3-1.4,99.4-.1,50.6,37.1,87.8,87.7,87.8q147.4,0,295,.3c2.2,0,6.2,4,6.2,6.1.4,98.2.3,196.3.3,294.5,0,50.7,38,88.6,88.5,88.6h84.5c48.6,0,87-38.4,87-87,0-98.8-.1-197.6.2-296.4,0-2.1,3.7-5.8,5.7-5.8,50.7-.3,101.4-.3,152-.3h145.5c45.4-.1,82.7-33.3,85.5-78.5C1122,620.3,1120.7,588.7,1120.7,557.2ZM284.8,644.4c0,4.9,0,9.8-.1,14.6,0,20.3-19.8,31.9-37.3,21.9q-51.3-29.4-102.5-59.2c-16.9-9.8-16.7-32.8.3-42.7q50.9-29.7,102.1-59c17.8-10.1,37.4,1.5,37.4,22.1s.1,39,.1,58.5ZM520.1,247.3q29.3-51.2,58.9-102.1c10.1-17.4,33-17.3,43.2.2q29.4,50.5,58.5,101.2c10.5,18.4-1,37.9-22.2,37.9-19.5.1-39,0-58.5,0H541.5C521.7,284.4,510.2,264.6,520.1,247.3ZM683.4,601.7c0,46.6-37.1,83.4-84.1,83.4s-82.7-37.5-82.7-83.4,37.7-83.9,83.7-83.5A83.3,83.3,0,0,1,683.4,601.7Zm-2.2,348.1q-29.4,51.6-59.4,102.9c-9.9,16.9-32.8,16.6-42.7-.4q-29.7-50.8-59-102.1c-10-17.5,1.6-37.2,21.8-37.3H659.3C679.3,913,691.1,932.4,681.2,949.8Zm372.6-326.6-99.1,57.2c-18.3,10.5-38.1-.5-38.4-21.7,0-4.9-.1-9.7-.1-14.6,0-14.6.1-29.3.1-43.9,0-19-.1-37.9,0-56.9.1-22.5,19.8-33.6,39.2-22.4,32.7,19,65.5,37.8,98.2,56.7C1073.9,589.3,1073.9,611.5,1053.8,623.2Z"/>
  </g>
</svg>
