<?xml version="1.0" encoding="UTF-8"?><svg xmlns="http://www.w3.org/2000/svg" viewBox="0 0 1200.85 1431.06"><defs><style>.d,.e,.f{fill:#fff;}.e{font-size:160.35px;}.e,.f{font-family:ProximaNova-Black, Proxima Nova;}.f{font-size:74.83px;}</style></defs><g id="a"/><g id="b"><g id="c"><g><path class="d" d="M542.38,284.5c4.87,.03,9.74,.05,14.62,.06,14.62,.03,29.23-.03,43.85-.03,19.49,0,38.98,.03,58.46,0,21.26-.05,32.76-19.5,22.22-37.9-19.37-33.81-38.86-67.55-58.46-101.23-10.19-17.5-33.06-17.59-43.21-.16-19.77,33.96-39.42,68-58.95,102.1-9.88,17.26,1.62,37.03,21.47,37.16Z"/><path class="d" d="M285.6,542.11c-.06-20.58-19.66-32.25-37.48-22.07-34.12,19.5-68.14,39.18-102.1,58.97-16.93,9.87-17.12,32.85-.27,42.68,34.08,19.9,68.27,39.62,102.54,59.2,17.52,10.01,37.22-1.64,37.31-21.85,.02-4.87,.03-9.74,.04-14.62,.02-14.62-.02-29.23-.02-43.85,0-19.49,.05-38.98-.01-58.47Z"/><path class="d" d="M601.11,518.19c-45.92-.35-83.61,37.29-83.65,83.55-.04,45.87,37.08,83.27,82.69,83.33,46.96,.06,84.07-36.73,84.08-83.37,.01-46.1-36.87-83.15-83.12-83.51Z"/><path class="d" d="M600.85,0C269.48,0,.85,268.63,.85,600s268.63,600,600,600,600-268.63,600-600S932.22,0,600.85,0Zm434.5,730.2c-48.49,.14-96.99,.03-145.49,.03-50.66,0-101.32-.07-151.98,.26-1.99,.01-5.69,3.76-5.7,5.77-.28,98.82-.24,197.65-.25,296.47,0,48.61-38.37,86.98-86.96,86.99-28.16,0-56.33,0-84.49,0-50.57,0-88.48-37.92-88.5-88.61-.03-98.16,.03-196.31-.28-294.47,0-2.14-4.09-6.14-6.28-6.14-98.32-.31-196.65-.26-294.97-.27-50.59,0-87.83-37.2-87.7-87.79,.09-33.15-1.74-66.51,1.37-99.38,3.96-41.92,41.73-72.74,83.98-72.75,99.16-.02,198.31,.03,297.47-.28,2.14,0,6.13-4.06,6.14-6.24,.31-97.49,.26-194.98,.27-292.47,0-50.74,35.42-88.21,86.03-89.33,33.78-.75,67.82-1.77,101.36,1.41,41.31,3.91,72.54,42.23,72.55,83.84,.04,98.49-.04,196.98,.32,295.47,0,2.54,4.59,7.27,7.06,7.28,98.49,.37,196.98,.31,295.47,.32,48.89,0,86.83,37.96,86.79,86.94-.03,31.49,1.28,63.08-.69,94.45-2.84,45.21-40.1,78.39-85.51,78.52Z"/><path class="d" d="M1054.52,577.64c-32.71-18.94-65.48-37.78-98.19-56.72-19.4-11.23-39.06-.11-39.19,22.34-.11,18.99-.02,37.98-.02,56.96,0,14.62-.11,29.23-.06,43.85,.02,4.87,.05,9.74,.11,14.61,.27,21.19,20.06,32.24,38.38,21.66,33.02-19.07,66.04-38.14,99.07-57.2,20.12-11.62,20.1-33.81-.11-45.51Z"/><path class="d" d="M660.14,912.94c-19.49-.08-38.98-.02-58.46-.02-19.65,0-39.31-.06-58.96,.02-20.2,.08-31.76,19.79-21.73,37.3,19.53,34.1,39.18,68.14,58.96,102.09,9.88,16.96,32.8,17.26,42.68,.41,20.03-34.19,39.82-68.53,59.43-102.97,9.86-17.32-1.86-36.75-21.91-36.83Z"/></g><text class="e" transform="translate(0 1367.24)"><tspan x="0" y="0">GameDirection</tspan></text><text class="f" transform="translate(1125.99 1288.87) scale(.58)"><tspan x="0" y="0">TM</tspan></text></g></g></svg>