<?xml version="1.0" encoding="UTF-8"?>
<svg id="Layer_2" data-name="Layer 2" xmlns="http://www.w3.org/2000/svg" xmlns:xlink="http://www.w3.org/1999/xlink" viewBox="0 0 5146.09 648">
  <defs>
    <style>
      .cls-1 {
        fill: #fff;
      }

      .cls-2 {
        fill: url(#New_Pattern);
      }

      .cls-3 {
        fill: none;
      }

      .cls-4 {
        fill: #d1d3d4;
      }

      .cls-5 {
        fill: url(#linear-gradient);
      }
    </style>
    <pattern id="New_Pattern" data-name="New Pattern" x="0" y="0" width="327.78" height="327.8" patternTransform="translate(0 -1751.53)" patternUnits="userSpaceOnUse" viewBox="0 0 327.78 327.8">
      <g>
        <rect class="cls-3" width="327.78" height="327.8"/>
        <path class="cls-4" d="m327.36,273.16s0,.03,0,.04c0,.45,0,.9.04,1.35,0,.13.02.26.03.39.01.14.03.29.05.43.02.19.04.37.07.56.05.31.11.61.17.92.13.69.31,1.36.53,2.03.09.29.2.58.31.87.19.52.41,1.03.66,1.53.12.25.24.49.38.73.18.33.37.65.56.97.24.39.49.77.76,1.14.3.4.6.8.93,1.18.23.26.46.52.7.77.43.45.88.88,1.36,1.27.24.2.49.41.74.6.48.37.98.72,1.49,1.04.35.22.71.43,1.08.63.32.16.64.32.96.48.13.07.27.13.41.18.34.14.69.28,1.04.41.47.18.95.33,1.43.46.55.15,1.09.28,1.65.37.23.04.46.07.69.11.11.02.23.04.34.05.12.02.25.03.37.04.16.01.32.02.47.04.23.02.46.05.7.05.54,0,1.08.02,1.62-.01.3-.02.59-.03.89-.06.18-.02.35-.04.53-.06.28-.04.57-.08.85-.12.42-.07.84-.16,1.25-.26.7-.17,1.39-.38,2.06-.63.58-.22,1.15-.46,1.71-.73.46-.22.9-.47,1.33-.73.48-.29.95-.6,1.4-.93.33-.24.65-.49.96-.75.3-.25.6-.51.88-.78.49-.47.97-.96,1.4-1.48.2-.24.41-.49.6-.74.33-.43.65-.88.94-1.34.26-.41.5-.82.73-1.25.26-.49.5-.99.72-1.51.29-.69.54-1.39.74-2.1.18-.63.32-1.27.44-1.91.08-.47.14-.94.19-1.41.03-.26.05-.51.06-.77.02-.3.03-.61.03-.91,0-.25-.01-.5-.02-.74,0-.14,0-.29,0-.43-.01-.2-.03-.4-.05-.61-.02-.23-.04-.46-.07-.7-.03-.24-.07-.48-.11-.72-.06-.39-.14-.78-.23-1.17-.18-.75-.4-1.49-.67-2.22-.21-.56-.44-1.11-.7-1.64-.27-.56-.56-1.1-.89-1.62-.26-.42-.54-.84-.83-1.24-.3-.4-.6-.8-.93-1.18-.22-.25-.44-.51-.68-.75-.43-.46-.89-.89-1.38-1.3-.25-.21-.5-.41-.75-.61-.45-.35-.91-.67-1.39-.97-.39-.25-.8-.49-1.21-.7-.66-.35-1.33-.66-2.03-.93-.48-.18-.96-.35-1.45-.49-.51-.15-1.02-.28-1.54-.38-.31-.06-.62-.11-.94-.16-.17-.03-.33-.05-.5-.07-.14-.02-.29-.04-.43-.05-.16-.01-.33-.02-.49-.04-.28-.03-.56-.04-.85-.05-.51-.01-1.01-.01-1.52.02-.19.01-.39.02-.58.03,0,0,0,0-.01,0-.15.02-.31.03-.46.05-.2.02-.4.04-.59.07-.37.06-.73.13-1.1.2-.68.13-1.34.31-2,.52-.27.09-.54.19-.81.29-.47.17-.92.36-1.37.58-.34.16-.68.33-1.01.52-.34.19-.67.38-1,.59-.71.45-1.38.94-2.02,1.47-.35.29-.69.6-1.02.92-.41.39-.79.8-1.15,1.23-.21.25-.42.5-.62.76-.35.46-.69.94-1,1.43-.31.49-.6,1-.86,1.51-.31.61-.58,1.23-.82,1.87-.21.57-.4,1.14-.56,1.73-.16.6-.29,1.21-.39,1.83-.06.37-.11.73-.14,1.1-.01.12-.02.24-.03.36-.03.27-.05.54-.05.82,0,.24,0,.49,0,.73h0Zm22.69,13.45c0,.34-.06.67-.18.99-.11.28-.27.54-.46.78-.23.26-.49.47-.8.63-.23.12-.48.21-.74.25-.2.04-.4.05-.61.05-.83,0-1.67,0-2.5,0-.46,0-.9-.09-1.31-.3-.62-.32-1.06-.81-1.3-1.47-.08-.23-.13-.47-.15-.71-.01-.14-.02-.29-.02-.43,0-2.95,0-5.9,0-8.85,0-.02,0-.05,0-.07,0-.15-.1-.25-.25-.25-.41,0-.81,0-1.22,0-2.59,0-5.19,0-7.78,0-.28,0-.56-.02-.83-.09-.45-.11-.85-.33-1.19-.65-.39-.37-.63-.83-.74-1.35-.05-.21-.07-.43-.06-.65,0-.33,0-.66,0-.98-.01-.29-.02-.59-.01-.88,0-.28,0-.57.03-.85.02-.23.02-.46.08-.68.11-.42.3-.79.61-1.11.41-.43.91-.68,1.48-.8.13-.03.27-.03.4-.04.07,0,.15,0,.22,0,2.57,0,5.15,0,7.72,0,.42,0,.84,0,1.27,0,.1,0,.18-.04.24-.12.03-.03.04-.07.04-.11,0-.06,0-.13,0-.19,0-.95,0-1.9,0-2.85,0-2.01,0-4.01,0-6.02,0-.48.1-.94.32-1.36.3-.57.75-.98,1.36-1.21.28-.11.58-.17.88-.18.83-.04,1.67-.03,2.5-.02.28,0,.56.02.83.06.49.06.91.27,1.28.59.37.34.64.75.78,1.23.08.25.12.5.12.76,0,1.05,0,2.1,0,3.14,0,1.96,0,3.91,0,5.87,0,.04,0,.08,0,.12.01.17.13.28.31.28.54,0,1.08,0,1.62,0,2.46,0,4.93,0,7.39,0,.3,0,.59.03.88.12.39.12.74.31,1.04.59.33.3.56.67.71,1.09.08.25.14.51.14.77,0,.93,0,1.87,0,2.8,0,.28-.03.56-.11.84-.11.35-.27.66-.51.94-.42.5-.97.78-1.61.89-.13.02-.27.03-.4.04-.19,0-.38,0-.57,0-2.82,0-5.63,0-8.45,0-.07,0-.14,0-.21,0-.12,0-.22.09-.23.21,0,.04,0,.09,0,.13,0,1.53,0,3.06,0,4.59h0c0,1.49,0,2.97,0,4.46Z"/>
        <g>
          <path class="cls-4" d="m218.1,273.16s0,.03,0,.04c0,.45,0,.9.04,1.35,0,.13.02.26.03.39.01.14.03.29.05.43.02.19.04.37.07.56.05.31.11.61.17.92.13.69.31,1.36.53,2.03.09.29.2.58.31.87.19.52.41,1.03.66,1.53.12.25.24.49.38.73.18.33.37.65.56.97.24.39.49.77.76,1.14.3.4.6.8.93,1.18.23.26.46.52.7.77.43.45.88.88,1.36,1.27.24.2.49.41.74.6.48.37.98.72,1.49,1.04.35.22.71.43,1.08.63.32.16.64.32.96.48.13.07.27.13.41.18.34.14.69.28,1.04.41.47.18.95.33,1.43.46.55.15,1.09.28,1.65.37.23.04.46.07.69.11.11.02.23.04.34.05.12.02.25.03.37.04.16.01.32.02.47.04.23.02.46.05.7.05.54,0,1.08.02,1.62-.01.3-.02.59-.03.89-.06.18-.02.35-.04.53-.06.28-.04.57-.08.85-.12.42-.07.84-.16,1.25-.26.7-.17,1.39-.38,2.06-.63.58-.22,1.15-.46,1.71-.73.46-.22.9-.47,1.33-.73.48-.29.95-.6,1.4-.93.33-.24.65-.49.96-.75.3-.25.6-.51.88-.78.49-.47.97-.96,1.4-1.48.2-.24.41-.49.6-.74.33-.43.65-.88.94-1.34.26-.41.5-.82.73-1.25.26-.49.5-.99.72-1.51.29-.69.54-1.39.74-2.1.18-.63.32-1.27.44-1.91.08-.47.14-.94.19-1.41.03-.26.05-.51.06-.77.02-.3.03-.61.03-.91,0-.25-.01-.5-.02-.74,0-.14,0-.29,0-.43-.01-.2-.03-.4-.05-.61-.02-.23-.04-.46-.07-.7-.03-.24-.07-.48-.11-.72-.06-.39-.14-.78-.23-1.17-.18-.75-.4-1.49-.67-2.22-.21-.56-.44-1.11-.7-1.64-.27-.56-.56-1.1-.89-1.62-.26-.42-.54-.84-.83-1.24-.3-.4-.6-.8-.93-1.18-.22-.25-.44-.51-.68-.75-.43-.46-.89-.89-1.38-1.3-.25-.21-.5-.41-.75-.61-.45-.35-.91-.67-1.39-.97-.39-.25-.8-.49-1.21-.7-.66-.35-1.33-.66-2.03-.93-.48-.18-.96-.35-1.45-.49-.51-.15-1.02-.28-1.54-.38-.31-.06-.62-.11-.94-.16-.17-.03-.33-.05-.5-.07-.14-.02-.29-.04-.43-.05-.16-.01-.33-.02-.49-.04-.28-.03-.56-.04-.85-.05-.51-.01-1.01-.01-1.52.02-.19.01-.39.02-.58.03,0,0,0,0-.01,0-.15.02-.31.03-.46.05-.2.02-.4.04-.59.07-.37.06-.73.13-1.1.2-.68.13-1.34.31-2,.52-.27.09-.54.19-.81.29-.47.17-.92.36-1.37.58-.34.16-.68.33-1.01.52-.34.19-.67.38-1,.59-.71.45-1.38.94-2.02,1.47-.35.29-.69.6-1.02.92-.41.39-.79.8-1.15,1.23-.21.25-.42.5-.62.76-.35.46-.69.94-1,1.43-.31.49-.6,1-.86,1.51-.31.61-.58,1.23-.82,1.87-.21.57-.4,1.14-.56,1.73-.16.6-.29,1.21-.39,1.83-.06.37-.11.73-.14,1.1-.01.12-.02.24-.03.36-.03.27-.05.54-.05.82,0,.24,0,.49,0,.73h0Zm22.69,13.45c0,.34-.06.67-.18.99-.11.28-.27.54-.46.78-.23.26-.49.47-.8.63-.23.12-.48.21-.74.25-.2.04-.4.05-.61.05-.83,0-1.67,0-2.5,0-.46,0-.9-.09-1.31-.3-.62-.32-1.06-.81-1.3-1.47-.08-.23-.13-.47-.15-.71-.01-.14-.02-.29-.02-.43,0-2.95,0-5.9,0-8.85,0-.02,0-.05,0-.07,0-.15-.1-.25-.25-.25-.41,0-.81,0-1.22,0-2.59,0-5.19,0-7.78,0-.28,0-.56-.02-.83-.09-.45-.11-.85-.33-1.19-.65-.39-.37-.63-.83-.74-1.35-.05-.21-.07-.43-.06-.65,0-.33,0-.66,0-.98-.01-.29-.02-.59-.01-.88,0-.28,0-.57.03-.85.02-.23.02-.46.08-.68.11-.42.3-.79.61-1.11.41-.43.91-.68,1.48-.8.13-.03.27-.03.4-.04.07,0,.15,0,.22,0,2.57,0,5.15,0,7.72,0,.42,0,.84,0,1.27,0,.1,0,.18-.04.24-.12.03-.03.04-.07.04-.11,0-.06,0-.13,0-.19,0-.95,0-1.9,0-2.85,0-2.01,0-4.01,0-6.02,0-.48.1-.94.32-1.36.3-.57.75-.98,1.36-1.21.28-.11.58-.17.88-.18.83-.04,1.67-.03,2.5-.02.28,0,.56.02.83.06.49.06.91.27,1.28.59.37.34.64.75.78,1.23.08.25.12.5.12.76,0,1.05,0,2.1,0,3.14,0,1.96,0,3.91,0,5.87,0,.04,0,.08,0,.12.01.17.13.28.31.28.54,0,1.08,0,1.62,0,2.46,0,4.93,0,7.39,0,.3,0,.59.03.88.12.39.12.74.31,1.04.59.33.3.56.67.71,1.09.08.25.14.51.14.77,0,.93,0,1.87,0,2.8,0,.28-.03.56-.11.84-.11.35-.27.66-.51.94-.42.5-.97.78-1.61.89-.13.02-.27.03-.4.04-.19,0-.38,0-.57,0-2.82,0-5.63,0-8.45,0-.07,0-.14,0-.21,0-.12,0-.22.09-.23.21,0,.04,0,.09,0,.13,0,1.53,0,3.06,0,4.59h0c0,1.49,0,2.97,0,4.46Z"/>
          <path class="cls-4" d="m236.71,275.81c-1.5,0-2.58-1.23-2.58-2.59,0-1.41,1.16-2.59,2.58-2.59,1.48,0,2.61,1.22,2.59,2.6.02,1.34-1.04,2.58-2.59,2.58Zm-1.67-12.43c-.1,0-.2,0-.3-.02-.36-.07-.6-.37-.61-.69,0-.17.04-.32.12-.47.37-.64.74-1.28,1.11-1.92.23-.4.47-.81.7-1.21.1-.18.25-.31.44-.38.37-.12.68.05.85.3.06.09.12.19.17.28.27.47.54.94.81,1.4.29.49.57.99.85,1.48.06.11.12.23.14.36.04.29-.05.52-.27.7-.12.09-.26.15-.41.16-.1,0-.21.02-.31.02-.54,0-1.07,0-1.61,0-.57,0-1.13,0-1.7,0Zm3.5,19.51c.12,0,.24.02.35.06.29.11.48.4.47.71,0,.14-.05.26-.12.38-.2.35-.4.71-.61,1.06-.28.48-.56.96-.84,1.44-.12.2-.23.4-.35.61-.07.12-.15.24-.27.33-.29.21-.67.16-.91-.04-.08-.07-.15-.15-.2-.24-.18-.31-.36-.63-.55-.94-.24-.41-.48-.83-.72-1.24-.19-.32-.37-.65-.56-.97-.08-.14-.12-.29-.11-.46.02-.28.16-.49.4-.61.12-.07.26-.09.4-.09.6,0,1.2,0,1.8,0,.6,0,1.19,0,1.79,0Zm8.01-11.42c0-.1,0-.2.03-.3.07-.34.37-.61.75-.59.15,0,.28.05.41.13.18.1.36.21.54.31.49.28.97.56,1.46.84.37.21.73.42,1.1.64.12.07.23.16.31.28.22.31.17.65-.07.91-.09.1-.2.17-.31.23-.2.11-.4.23-.59.34-.8.46-1.61.93-2.41,1.39-.15.09-.3.14-.48.14-.27,0-.49-.13-.62-.37-.08-.14-.11-.29-.11-.44,0-.45,0-.89,0-1.34,0-.15,0-.3,0-.45h0c0-.58,0-1.15,0-1.73Zm-19.61,3.55c0,.15-.03.29-.11.41-.21.35-.64.47-1.01.27-.21-.11-.41-.23-.62-.35-.43-.25-.87-.5-1.3-.75-.43-.25-.86-.5-1.29-.75-.16-.09-.28-.22-.35-.4-.12-.32,0-.67.23-.85.1-.08.21-.14.33-.21.79-.46,1.59-.92,2.39-1.38.17-.1.33-.2.5-.29.1-.06.2-.11.31-.14.34-.09.72.1.86.45.04.11.06.22.06.33,0,.61,0,1.21,0,1.82h0c0,.61,0,1.21,0,1.82Z"/>
          <path class="cls-4" d="m239.31,273.23c.02,1.34-1.04,2.58-2.59,2.58-1.5,0-2.58-1.23-2.58-2.59,0-1.41,1.16-2.59,2.58-2.59,1.48,0,2.61,1.22,2.59,2.6Z"/>
          <path class="cls-4" d="m236.74,263.38c-.57,0-1.13,0-1.7,0-.1,0-.2,0-.3-.02-.36-.07-.6-.37-.61-.69,0-.17.04-.32.12-.47.37-.64.74-1.28,1.11-1.92.23-.4.47-.81.7-1.21.1-.18.25-.31.44-.38.37-.12.68.05.85.3.06.09.12.19.17.28.27.47.54.94.81,1.4.29.49.57.99.85,1.48.06.11.12.23.14.36.04.29-.05.52-.27.7-.12.09-.26.15-.41.16-.1,0-.21.02-.31.02-.54,0-1.07,0-1.61,0Z"/>
          <path class="cls-4" d="m236.75,282.89c.6,0,1.19,0,1.79,0,.12,0,.24.02.35.06.29.11.48.4.47.71,0,.14-.05.26-.12.38-.2.35-.4.71-.61,1.06-.28.48-.56.96-.84,1.44-.12.2-.23.4-.35.61-.07.12-.15.24-.27.33-.29.21-.67.16-.91-.04-.08-.07-.15-.15-.2-.24-.18-.31-.36-.63-.55-.94-.24-.41-.48-.83-.72-1.24-.19-.32-.37-.65-.56-.97-.08-.14-.12-.29-.11-.46.02-.28.16-.49.4-.61.12-.07.26-.09.4-.09.6,0,1.2,0,1.8,0Z"/>
          <path class="cls-4" d="m246.55,273.19c0-.58,0-1.15,0-1.73,0-.1,0-.2.03-.3.07-.34.37-.61.75-.59.15,0,.28.05.41.13.18.1.36.21.54.31.49.28.97.56,1.46.84.37.21.73.42,1.1.64.12.07.23.16.31.28.22.31.17.65-.07.91-.09.1-.2.17-.31.23-.2.11-.4.23-.59.34-.8.46-1.61.93-2.41,1.39-.15.09-.3.14-.48.14-.27,0-.49-.13-.62-.37-.08-.14-.11-.29-.11-.44,0-.45,0-.89,0-1.34,0-.15,0-.3,0-.45h0Z"/>
          <path class="cls-4" d="m226.93,273.19c0,.61,0,1.21,0,1.82,0,.15-.03.29-.11.41-.21.35-.64.47-1.01.27-.21-.11-.41-.23-.62-.35-.43-.25-.87-.5-1.3-.75-.43-.25-.86-.5-1.29-.75-.16-.09-.28-.22-.35-.4-.12-.32,0-.67.23-.85.1-.08.21-.14.33-.21.79-.46,1.59-.92,2.39-1.38.17-.1.33-.2.5-.29.1-.06.2-.11.31-.14.34-.09.72.1.86.45.04.11.06.22.06.33,0,.61,0,1.21,0,1.82h0Z"/>
        </g>
        <g>
          <path class="cls-4" d="m108.84,273.16s0,.03,0,.04c0,.45,0,.9.04,1.35,0,.13.02.26.03.39.01.14.03.29.05.43.02.19.04.37.07.56.05.31.11.61.17.92.13.69.31,1.36.53,2.03.09.29.2.58.31.87.19.52.41,1.03.66,1.53.12.25.24.49.38.73.18.33.37.65.56.97.24.39.49.77.76,1.14.3.4.6.8.93,1.18.23.26.46.52.7.77.43.45.88.88,1.36,1.27.24.2.49.41.74.6.48.37.98.72,1.49,1.04.35.22.71.43,1.08.63.32.16.64.32.96.48.13.07.27.13.41.18.34.14.69.28,1.04.41.47.18.95.33,1.43.46.55.15,1.09.28,1.65.37.23.04.46.07.69.11.11.02.23.04.34.05.12.02.25.03.37.04.16.01.32.02.47.04.23.02.46.05.7.05.54,0,1.08.02,1.62-.01.3-.02.59-.03.89-.06.18-.02.35-.04.53-.06.28-.04.57-.08.85-.12.42-.07.84-.16,1.25-.26.7-.17,1.39-.38,2.06-.63.58-.22,1.15-.46,1.71-.73.46-.22.9-.47,1.33-.73.48-.29.95-.6,1.4-.93.33-.24.65-.49.96-.75.3-.25.6-.51.88-.78.49-.47.97-.96,1.4-1.48.2-.24.41-.49.6-.74.33-.43.65-.88.94-1.34.26-.41.5-.82.73-1.25.26-.49.5-.99.72-1.51.29-.69.54-1.39.74-2.1.18-.63.32-1.27.44-1.91.08-.47.14-.94.19-1.41.03-.26.05-.51.06-.77.02-.3.03-.61.03-.91,0-.25-.01-.5-.02-.74,0-.14,0-.29,0-.43-.01-.2-.03-.4-.05-.61-.02-.23-.04-.46-.07-.7-.03-.24-.07-.48-.11-.72-.06-.39-.14-.78-.23-1.17-.18-.75-.4-1.49-.67-2.22-.21-.56-.44-1.11-.7-1.64-.27-.56-.56-1.1-.89-1.62-.26-.42-.54-.84-.83-1.24-.3-.4-.6-.8-.93-1.18-.22-.25-.44-.51-.68-.75-.43-.46-.89-.89-1.38-1.3-.25-.21-.5-.41-.75-.61-.45-.35-.91-.67-1.39-.97-.39-.25-.8-.49-1.21-.7-.66-.35-1.33-.66-2.03-.93-.48-.18-.96-.35-1.45-.49-.51-.15-1.02-.28-1.54-.38-.31-.06-.62-.11-.94-.16-.17-.03-.33-.05-.5-.07-.14-.02-.29-.04-.43-.05-.16-.01-.33-.02-.49-.04-.28-.03-.56-.04-.85-.05-.51-.01-1.01-.01-1.52.02-.19.01-.39.02-.58.03,0,0,0,0-.01,0-.15.02-.31.03-.46.05-.2.02-.4.04-.59.07-.37.06-.73.13-1.1.2-.68.13-1.34.31-2,.52-.27.09-.54.19-.81.29-.47.17-.92.36-1.37.58-.34.16-.68.33-1.01.52-.34.19-.67.38-1,.59-.71.45-1.38.94-2.02,1.47-.35.29-.69.6-1.02.92-.41.39-.79.8-1.15,1.23-.21.25-.42.5-.62.76-.35.46-.69.94-1,1.43-.31.49-.6,1-.86,1.51-.31.61-.58,1.23-.82,1.87-.21.57-.4,1.14-.56,1.73-.16.6-.29,1.21-.39,1.83-.06.37-.11.73-.14,1.1-.01.12-.02.24-.03.36-.03.27-.05.54-.05.82,0,.24,0,.49,0,.73h0Zm22.69,13.45c0,.34-.06.67-.18.99-.11.28-.27.54-.46.78-.23.26-.49.47-.8.63-.23.12-.48.21-.74.25-.2.04-.4.05-.61.05-.83,0-1.67,0-2.5,0-.46,0-.9-.09-1.31-.3-.62-.32-1.06-.81-1.3-1.47-.08-.23-.13-.47-.15-.71-.01-.14-.02-.29-.02-.43,0-2.95,0-5.9,0-8.85,0-.02,0-.05,0-.07,0-.15-.1-.25-.25-.25-.41,0-.81,0-1.22,0-2.59,0-5.19,0-7.78,0-.28,0-.56-.02-.83-.09-.45-.11-.85-.33-1.19-.65-.39-.37-.63-.83-.74-1.35-.05-.21-.07-.43-.06-.65,0-.33,0-.66,0-.98-.01-.29-.02-.59-.01-.88,0-.28,0-.57.03-.85.02-.23.02-.46.08-.68.11-.42.3-.79.61-1.11.41-.43.91-.68,1.48-.8.13-.03.27-.03.4-.04.07,0,.15,0,.22,0,2.57,0,5.15,0,7.72,0,.42,0,.84,0,1.27,0,.1,0,.18-.04.24-.12.03-.03.04-.07.04-.11,0-.06,0-.13,0-.19,0-.95,0-1.9,0-2.85,0-2.01,0-4.01,0-6.02,0-.48.1-.94.32-1.36.3-.57.75-.98,1.36-1.21.28-.11.58-.17.88-.18.83-.04,1.67-.03,2.5-.02.28,0,.56.02.83.06.49.06.91.27,1.28.59.37.34.64.75.78,1.23.08.25.12.5.12.76,0,1.05,0,2.1,0,3.14,0,1.96,0,3.91,0,5.87,0,.04,0,.08,0,.12.01.17.13.28.31.28.54,0,1.08,0,1.62,0,2.46,0,4.93,0,7.39,0,.3,0,.59.03.88.12.39.12.74.31,1.04.59.33.3.56.67.71,1.09.08.25.14.51.14.77,0,.93,0,1.87,0,2.8,0,.28-.03.56-.11.84-.11.35-.27.66-.51.94-.42.5-.97.78-1.61.89-.13.02-.27.03-.4.04-.19,0-.38,0-.57,0-2.82,0-5.63,0-8.45,0-.07,0-.14,0-.21,0-.12,0-.22.09-.23.21,0,.04,0,.09,0,.13,0,1.53,0,3.06,0,4.59h0c0,1.49,0,2.97,0,4.46Z"/>
          <path class="cls-4" d="m127.45,275.81c-1.5,0-2.58-1.23-2.58-2.59,0-1.41,1.16-2.59,2.58-2.59,1.48,0,2.61,1.22,2.59,2.6.02,1.34-1.04,2.58-2.59,2.58Zm-1.67-12.43c-.1,0-.2,0-.3-.02-.36-.07-.6-.37-.61-.69,0-.17.04-.32.12-.47.37-.64.74-1.28,1.11-1.92.23-.4.47-.81.7-1.21.1-.18.25-.31.44-.38.37-.12.68.05.85.3.06.09.12.19.17.28.27.47.54.94.81,1.4.29.49.57.99.85,1.48.06.11.12.23.14.36.04.29-.05.52-.27.7-.12.09-.26.15-.41.16-.1,0-.21.02-.31.02-.54,0-1.07,0-1.61,0-.57,0-1.13,0-1.7,0Zm3.5,19.51c.12,0,.24.02.35.06.29.11.48.4.47.71,0,.14-.05.26-.12.38-.2.35-.4.71-.61,1.06-.28.48-.56.96-.84,1.44-.12.2-.23.4-.35.61-.07.12-.15.24-.27.33-.29.21-.67.16-.91-.04-.08-.07-.15-.15-.2-.24-.18-.31-.36-.63-.55-.94-.24-.41-.48-.83-.72-1.24-.19-.32-.37-.65-.56-.97-.08-.14-.12-.29-.11-.46.02-.28.16-.49.4-.61.12-.07.26-.09.4-.09.6,0,1.2,0,1.8,0,.6,0,1.19,0,1.79,0Zm8.01-11.42c0-.1,0-.2.03-.3.07-.34.37-.61.75-.59.15,0,.28.05.41.13.18.1.36.21.54.31.49.28.97.56,1.46.84.37.21.73.42,1.1.64.12.07.23.16.31.28.22.31.17.65-.07.91-.09.1-.2.17-.31.23-.2.11-.4.23-.59.34-.8.46-1.61.93-2.41,1.39-.15.09-.3.14-.48.14-.27,0-.49-.13-.62-.37-.08-.14-.11-.29-.11-.44,0-.45,0-.89,0-1.34,0-.15,0-.3,0-.45h0c0-.58,0-1.15,0-1.73Zm-19.61,3.55c0,.15-.03.29-.11.41-.21.35-.64.47-1.01.27-.21-.11-.41-.23-.62-.35-.43-.25-.87-.5-1.3-.75-.43-.25-.86-.5-1.29-.75-.16-.09-.28-.22-.35-.4-.12-.32,0-.67.23-.85.1-.08.21-.14.33-.21.79-.46,1.59-.92,2.39-1.38.17-.1.33-.2.5-.29.1-.06.2-.11.31-.14.34-.09.72.1.86.45.04.11.06.22.06.33,0,.61,0,1.21,0,1.82h0c0,.61,0,1.21,0,1.82Z"/>
          <path class="cls-4" d="m130.05,273.23c.02,1.34-1.04,2.58-2.59,2.58-1.5,0-2.58-1.23-2.58-2.59,0-1.41,1.16-2.59,2.58-2.59,1.48,0,2.61,1.22,2.59,2.6Z"/>
          <path class="cls-4" d="m127.48,263.38c-.57,0-1.13,0-1.7,0-.1,0-.2,0-.3-.02-.36-.07-.6-.37-.61-.69,0-.17.04-.32.12-.47.37-.64.74-1.28,1.11-1.92.23-.4.47-.81.7-1.21.1-.18.25-.31.44-.38.37-.12.68.05.85.3.06.09.12.19.17.28.27.47.54.94.81,1.4.29.49.57.99.85,1.48.06.11.12.23.14.36.04.29-.05.52-.27.7-.12.09-.26.15-.41.16-.1,0-.21.02-.31.02-.54,0-1.07,0-1.61,0Z"/>
          <path class="cls-4" d="m127.49,282.89c.6,0,1.19,0,1.79,0,.12,0,.24.02.35.06.29.11.48.4.47.71,0,.14-.05.26-.12.38-.2.35-.4.71-.61,1.06-.28.48-.56.96-.84,1.44-.12.2-.23.4-.35.61-.07.12-.15.24-.27.33-.29.21-.67.16-.91-.04-.08-.07-.15-.15-.2-.24-.18-.31-.36-.63-.55-.94-.24-.41-.48-.83-.72-1.24-.19-.32-.37-.65-.56-.97-.08-.14-.12-.29-.11-.46.02-.28.16-.49.4-.61.12-.07.26-.09.4-.09.6,0,1.2,0,1.8,0Z"/>
          <path class="cls-4" d="m137.29,273.19c0-.58,0-1.15,0-1.73,0-.1,0-.2.03-.3.07-.34.37-.61.75-.59.15,0,.28.05.41.13.18.1.36.21.54.31.49.28.97.56,1.46.84.37.21.73.42,1.1.64.12.07.23.16.31.28.22.31.17.65-.07.91-.09.1-.2.17-.31.23-.2.11-.4.23-.59.34-.8.46-1.61.93-2.41,1.39-.15.09-.3.14-.48.14-.27,0-.49-.13-.62-.37-.08-.14-.11-.29-.11-.44,0-.45,0-.89,0-1.34,0-.15,0-.3,0-.45h0Z"/>
          <path class="cls-4" d="m117.67,273.19c0,.61,0,1.21,0,1.82,0,.15-.03.29-.11.41-.21.35-.64.47-1.01.27-.21-.11-.41-.23-.62-.35-.43-.25-.87-.5-1.3-.75-.43-.25-.86-.5-1.29-.75-.16-.09-.28-.22-.35-.4-.12-.32,0-.67.23-.85.1-.08.21-.14.33-.21.79-.46,1.59-.92,2.39-1.38.17-.1.33-.2.5-.29.1-.06.2-.11.31-.14.34-.09.72.1.86.45.04.11.06.22.06.33,0,.61,0,1.21,0,1.82h0Z"/>
        </g>
        <g>
          <path class="cls-4" d="m-.42,273.16s0,.03,0,.04c0,.45,0,.9.04,1.35,0,.13.02.26.03.39.01.14.03.29.05.43.02.19.04.37.07.56.05.31.11.61.17.92.13.69.31,1.36.53,2.03.09.29.2.58.31.87.19.52.41,1.03.66,1.53.12.25.24.49.38.73.18.33.37.65.56.97.24.39.49.77.76,1.14.3.4.6.8.93,1.18.23.26.46.52.7.77.43.45.88.88,1.36,1.27.24.2.49.41.74.6.48.37.98.72,1.49,1.04.35.22.71.43,1.08.63.32.16.64.32.96.48.13.07.27.13.41.18.34.14.69.28,1.04.41.47.18.95.33,1.43.46.55.15,1.09.28,1.65.37.23.04.46.07.69.11.11.02.23.04.34.05.12.02.25.03.37.04.16.01.32.02.47.04.23.02.46.05.7.05.54,0,1.08.02,1.62-.01.3-.02.59-.03.89-.06.18-.02.35-.04.53-.06.28-.04.57-.08.85-.12.42-.07.84-.16,1.25-.26.7-.17,1.39-.38,2.06-.63.58-.22,1.15-.46,1.71-.73.46-.22.9-.47,1.33-.73.48-.29.95-.6,1.4-.93.33-.24.65-.49.96-.75.3-.25.6-.51.88-.78.49-.47.97-.96,1.4-1.48.2-.24.41-.49.6-.74.33-.43.65-.88.94-1.34.26-.41.5-.82.73-1.25.26-.49.5-.99.72-1.51.29-.69.54-1.39.74-2.1.18-.63.32-1.27.44-1.91.08-.47.14-.94.19-1.41.03-.26.05-.51.06-.77.02-.3.03-.61.03-.91,0-.25-.01-.5-.02-.74,0-.14,0-.29,0-.43-.01-.2-.03-.4-.05-.61-.02-.23-.04-.46-.07-.7-.03-.24-.07-.48-.11-.72-.06-.39-.14-.78-.23-1.17-.18-.75-.4-1.49-.67-2.22-.21-.56-.44-1.11-.7-1.64-.27-.56-.56-1.1-.89-1.62-.26-.42-.54-.84-.83-1.24-.3-.4-.6-.8-.93-1.18-.22-.25-.44-.51-.68-.75-.43-.46-.89-.89-1.38-1.3-.25-.21-.5-.41-.75-.61-.45-.35-.91-.67-1.39-.97-.39-.25-.8-.49-1.21-.7-.66-.35-1.33-.66-2.03-.93-.48-.18-.96-.35-1.45-.49-.51-.15-1.02-.28-1.54-.38-.31-.06-.62-.11-.94-.16-.17-.03-.33-.05-.5-.07-.14-.02-.29-.04-.43-.05-.16-.01-.33-.02-.49-.04-.28-.03-.56-.04-.85-.05-.51-.01-1.01-.01-1.52.02-.19.01-.39.02-.58.03,0,0,0,0-.01,0-.15.02-.31.03-.46.05-.2.02-.4.04-.59.07-.37.06-.73.13-1.1.2-.68.13-1.34.31-2,.52-.27.09-.54.19-.81.29-.47.17-.92.36-1.37.58-.34.16-.68.33-1.01.52-.34.19-.67.38-1,.59-.71.45-1.38.94-2.02,1.47-.35.29-.69.6-1.02.92-.41.39-.79.8-1.15,1.23-.21.25-.42.5-.62.76-.35.46-.69.94-1,1.43-.31.49-.6,1-.86,1.51-.31.61-.58,1.23-.82,1.87-.21.57-.4,1.14-.56,1.73-.16.6-.29,1.21-.39,1.83-.06.37-.11.73-.14,1.1-.01.12-.02.24-.03.36-.03.27-.05.54-.05.82,0,.24,0,.49,0,.73h0Zm22.69,13.45c0,.34-.06.67-.18.99-.11.28-.27.54-.46.78-.23.26-.49.47-.8.63-.23.12-.48.21-.74.25-.2.04-.4.05-.61.05-.83,0-1.67,0-2.5,0-.46,0-.9-.09-1.31-.3-.62-.32-1.06-.81-1.3-1.47-.08-.23-.13-.47-.15-.71-.01-.14-.02-.29-.02-.43,0-2.95,0-5.9,0-8.85,0-.02,0-.05,0-.07,0-.15-.1-.25-.25-.25-.41,0-.81,0-1.22,0-2.59,0-5.19,0-7.78,0-.28,0-.56-.02-.83-.09-.45-.11-.85-.33-1.19-.65-.39-.37-.63-.83-.74-1.35-.05-.21-.07-.43-.06-.65,0-.33,0-.66,0-.98-.01-.29-.02-.59-.01-.88,0-.28,0-.57.03-.85.02-.23.02-.46.08-.68.11-.42.3-.79.61-1.11.41-.43.91-.68,1.48-.8.13-.03.27-.03.4-.04.07,0,.15,0,.22,0,2.57,0,5.15,0,7.72,0,.42,0,.84,0,1.27,0,.1,0,.18-.04.24-.12.03-.03.04-.07.04-.11,0-.06,0-.13,0-.19,0-.95,0-1.9,0-2.85,0-2.01,0-4.01,0-6.02,0-.48.1-.94.32-1.36.3-.57.75-.98,1.36-1.21.28-.11.58-.17.88-.18.83-.04,1.67-.03,2.5-.02.28,0,.56.02.83.06.49.06.91.27,1.28.59.37.34.64.75.78,1.23.08.25.12.5.12.76,0,1.05,0,2.1,0,3.14,0,1.96,0,3.91,0,5.87,0,.04,0,.08,0,.12.01.17.13.28.31.28.54,0,1.08,0,1.62,0,2.46,0,4.93,0,7.39,0,.3,0,.59.03.88.12.39.12.74.31,1.04.59.33.3.56.67.71,1.09.08.25.14.51.14.77,0,.93,0,1.87,0,2.8,0,.28-.03.56-.11.84-.11.35-.27.66-.51.94-.42.5-.97.78-1.61.89-.13.02-.27.03-.4.04-.19,0-.38,0-.57,0-2.82,0-5.63,0-8.45,0-.07,0-.14,0-.21,0-.12,0-.22.09-.23.21,0,.04,0,.09,0,.13,0,1.53,0,3.06,0,4.59h0c0,1.49,0,2.97,0,4.46Z"/>
          <path class="cls-4" d="m18.19,275.81c-1.5,0-2.58-1.23-2.58-2.59,0-1.41,1.16-2.59,2.58-2.59,1.48,0,2.61,1.22,2.59,2.6.02,1.34-1.04,2.58-2.59,2.58Zm-1.67-12.43c-.1,0-.2,0-.3-.02-.36-.07-.6-.37-.61-.69,0-.17.04-.32.12-.47.37-.64.74-1.28,1.11-1.92.23-.4.47-.81.7-1.21.1-.18.25-.31.44-.38.37-.12.68.05.85.3.06.09.12.19.17.28.27.47.54.94.81,1.4.29.49.57.99.85,1.48.06.11.12.23.14.36.04.29-.05.52-.27.7-.12.09-.26.15-.41.16-.1,0-.21.02-.31.02-.54,0-1.07,0-1.61,0-.57,0-1.13,0-1.7,0Zm3.5,19.51c.12,0,.24.02.35.06.29.11.48.4.47.71,0,.14-.05.26-.12.38-.2.35-.4.71-.61,1.06-.28.48-.56.96-.84,1.44-.12.2-.23.4-.35.61-.07.12-.15.24-.27.33-.29.21-.67.16-.91-.04-.08-.07-.15-.15-.2-.24-.18-.31-.36-.63-.55-.94-.24-.41-.48-.83-.72-1.24-.19-.32-.37-.65-.56-.97-.08-.14-.12-.29-.11-.46.02-.28.16-.49.4-.61.12-.07.26-.09.4-.09.6,0,1.2,0,1.8,0,.6,0,1.19,0,1.79,0Zm8.01-11.42c0-.1,0-.2.03-.3.07-.34.37-.61.75-.59.15,0,.28.05.41.13.18.1.36.21.54.31.49.28.97.56,1.46.84.37.21.73.42,1.1.64.12.07.23.16.31.28.22.31.17.65-.07.91-.09.1-.2.17-.31.23-.2.11-.4.23-.59.34-.8.46-1.61.93-2.41,1.39-.15.09-.3.14-.48.14-.27,0-.49-.13-.62-.37-.08-.14-.11-.29-.11-.44,0-.45,0-.89,0-1.34,0-.15,0-.3,0-.45h0c0-.58,0-1.15,0-1.73Zm-19.61,3.55c0,.15-.03.29-.11.41-.21.35-.64.47-1.01.27-.21-.11-.41-.23-.62-.35-.43-.25-.87-.5-1.3-.75-.43-.25-.86-.5-1.29-.75-.16-.09-.28-.22-.35-.4-.12-.32,0-.67.23-.85.1-.08.21-.14.33-.21.79-.46,1.59-.92,2.39-1.38.17-.1.33-.2.5-.29.1-.06.2-.11.31-.14.34-.09.72.1.86.45.04.11.06.22.06.33,0,.61,0,1.21,0,1.82h0c0,.61,0,1.21,0,1.82Z"/>
          <path class="cls-4" d="m20.79,273.23c.02,1.34-1.04,2.58-2.59,2.58-1.5,0-2.58-1.23-2.58-2.59,0-1.41,1.16-2.59,2.58-2.59,1.48,0,2.61,1.22,2.59,2.6Z"/>
          <path class="cls-4" d="m18.22,263.38c-.57,0-1.13,0-1.7,0-.1,0-.2,0-.3-.02-.36-.07-.6-.37-.61-.69,0-.17.04-.32.12-.47.37-.64.74-1.28,1.11-1.92.23-.4.47-.81.7-1.21.1-.18.25-.31.44-.38.37-.12.68.05.85.3.06.09.12.19.17.28.27.47.54.94.81,1.4.29.49.57.99.85,1.48.06.11.12.23.14.36.04.29-.05.52-.27.7-.12.09-.26.15-.41.16-.1,0-.21.02-.31.02-.54,0-1.07,0-1.61,0Z"/>
          <path class="cls-4" d="m18.23,282.89c.6,0,1.19,0,1.79,0,.12,0,.24.02.35.06.29.11.48.4.47.71,0,.14-.05.26-.12.38-.2.35-.4.71-.61,1.06-.28.48-.56.96-.84,1.44-.12.2-.23.4-.35.61-.07.12-.15.24-.27.33-.29.21-.67.16-.91-.04-.08-.07-.15-.15-.2-.24-.18-.31-.36-.63-.55-.94-.24-.41-.48-.83-.72-1.24-.19-.32-.37-.65-.56-.97-.08-.14-.12-.29-.11-.46.02-.28.16-.49.4-.61.12-.07.26-.09.4-.09.6,0,1.2,0,1.8,0Z"/>
          <path class="cls-4" d="m28.02,273.19c0-.58,0-1.15,0-1.73,0-.1,0-.2.03-.3.07-.34.37-.61.75-.59.15,0,.28.05.41.13.18.1.36.21.54.31.49.28.97.56,1.46.84.37.21.73.42,1.1.64.12.07.23.16.31.28.22.31.17.65-.07.91-.09.1-.2.17-.31.23-.2.11-.4.23-.59.34-.8.46-1.61.93-2.41,1.39-.15.09-.3.14-.48.14-.27,0-.49-.13-.62-.37-.08-.14-.11-.29-.11-.44,0-.45,0-.89,0-1.34,0-.15,0-.3,0-.45h0Z"/>
          <path class="cls-4" d="m8.41,273.19c0,.61,0,1.21,0,1.82,0,.15-.03.29-.11.41-.21.35-.64.47-1.01.27-.21-.11-.41-.23-.62-.35-.43-.25-.87-.5-1.3-.75-.43-.25-.86-.5-1.29-.75-.16-.09-.28-.22-.35-.4-.12-.32,0-.67.23-.85.1-.08.21-.14.33-.21.79-.46,1.59-.92,2.39-1.38.17-.1.33-.2.5-.29.1-.06.2-.11.31-.14.34-.09.72.1.86.45.04.11.06.22.06.33,0,.61,0,1.21,0,1.82h0Z"/>
        </g>
        <g>
          <path class="cls-4" d="m254.52,163.9s0,.03,0,.04c0,.45,0,.9.04,1.35,0,.13.02.26.03.39.01.14.03.29.05.43.02.19.04.37.07.56.05.31.11.61.17.92.13.69.31,1.36.53,2.03.09.29.2.58.31.87.19.52.41,1.03.66,1.53.12.25.24.49.38.73.18.33.37.65.56.97.24.39.49.77.76,1.14.3.4.6.8.93,1.18.23.26.46.52.7.77.43.45.88.88,1.36,1.27.24.2.49.41.74.6.48.37.98.72,1.49,1.04.35.22.71.43,1.08.63.32.16.64.32.96.48.13.07.27.13.41.18.34.14.69.28,1.04.41.47.18.95.33,1.43.46.55.15,1.09.28,1.65.37.23.04.46.07.69.11.11.02.23.04.34.05.12.02.25.03.37.04.16.01.32.02.47.04.23.02.46.05.7.05.54,0,1.08.02,1.62-.01.3-.02.59-.03.89-.06.18-.02.35-.04.53-.06.28-.04.57-.08.85-.12.42-.07.84-.16,1.25-.26.7-.17,1.39-.38,2.06-.63.58-.22,1.15-.46,1.71-.73.46-.22.9-.47,1.33-.73.48-.29.95-.6,1.4-.93.33-.24.65-.49.96-.75.3-.25.6-.51.88-.78.49-.47.97-.96,1.4-1.48.2-.24.41-.49.6-.74.33-.43.65-.88.94-1.34.26-.41.5-.82.73-1.25.26-.49.5-.99.72-1.51.29-.69.54-1.39.74-2.1.18-.63.32-1.27.44-1.91.08-.47.14-.94.19-1.41.03-.26.05-.51.06-.77.02-.3.03-.61.03-.91,0-.25-.01-.5-.02-.74,0-.14,0-.29,0-.43-.01-.2-.03-.4-.05-.61-.02-.23-.04-.46-.07-.7-.03-.24-.07-.48-.11-.72-.06-.39-.14-.78-.23-1.17-.18-.75-.4-1.49-.67-2.22-.21-.56-.44-1.11-.7-1.64-.27-.56-.56-1.1-.89-1.62-.26-.42-.54-.84-.83-1.24-.3-.4-.6-.8-.93-1.18-.22-.25-.44-.51-.68-.75-.43-.46-.89-.89-1.38-1.3-.25-.21-.5-.41-.75-.61-.45-.35-.91-.67-1.39-.97-.39-.25-.8-.49-1.21-.7-.66-.35-1.33-.66-2.03-.93-.48-.18-.96-.35-1.45-.49-.51-.15-1.02-.28-1.54-.38-.31-.06-.62-.11-.94-.16-.17-.03-.33-.05-.5-.07-.14-.02-.29-.04-.43-.05-.16-.01-.33-.02-.49-.04-.28-.03-.56-.04-.85-.05-.51-.01-1.01-.01-1.52.02-.19.01-.39.02-.58.03,0,0,0,0-.01,0-.15.02-.31.03-.46.05-.2.02-.4.04-.59.07-.37.06-.73.13-1.1.2-.68.13-1.34.31-2,.52-.27.09-.54.19-.81.29-.47.17-.92.36-1.37.58-.34.16-.68.33-1.01.52-.34.19-.67.38-1,.59-.71.45-1.38.94-2.02,1.47-.35.29-.69.6-1.02.92-.41.39-.79.8-1.15,1.23-.21.25-.42.5-.62.76-.35.46-.69.94-1,1.43-.31.49-.6,1-.86,1.51-.31.61-.58,1.23-.82,1.87-.21.57-.4,1.14-.56,1.73-.16.6-.29,1.21-.39,1.83-.06.37-.11.73-.14,1.1-.01.12-.02.24-.03.36-.03.27-.05.54-.05.82,0,.24,0,.49,0,.73h0Zm22.69,13.45c0,.34-.06.67-.18.99-.11.28-.27.54-.46.78-.23.26-.49.47-.8.63-.23.12-.48.21-.74.25-.2.04-.4.05-.61.05-.83,0-1.67,0-2.5,0-.46,0-.9-.09-1.31-.3-.62-.32-1.06-.81-1.3-1.47-.08-.23-.13-.47-.15-.71-.01-.14-.02-.29-.02-.43,0-2.95,0-5.9,0-8.85,0-.02,0-.05,0-.07,0-.15-.1-.25-.25-.25-.41,0-.81,0-1.22,0-2.59,0-5.19,0-7.78,0-.28,0-.56-.02-.83-.09-.45-.11-.85-.33-1.19-.65-.39-.37-.63-.83-.74-1.35-.05-.21-.07-.43-.06-.65,0-.33,0-.66,0-.98-.01-.29-.02-.59-.01-.88,0-.28,0-.57.03-.85.02-.23.02-.46.08-.68.11-.42.3-.79.61-1.11.41-.43.91-.68,1.48-.8.13-.03.27-.03.4-.04.07,0,.15,0,.22,0,2.57,0,5.15,0,7.72,0,.42,0,.84,0,1.27,0,.1,0,.18-.04.24-.12.03-.03.04-.07.04-.11,0-.06,0-.13,0-.19,0-.95,0-1.9,0-2.85,0-2.01,0-4.01,0-6.02,0-.48.1-.94.32-1.36.3-.57.75-.98,1.36-1.21.28-.11.58-.17.88-.18.83-.04,1.67-.03,2.5-.02.28,0,.56.02.83.06.49.06.91.27,1.28.59.37.34.64.75.78,1.23.08.25.12.5.12.76,0,1.05,0,2.1,0,3.14,0,1.96,0,3.91,0,5.87,0,.04,0,.08,0,.12.01.17.13.28.31.28.54,0,1.08,0,1.62,0,2.46,0,4.93,0,7.39,0,.3,0,.59.03.88.12.39.12.74.31,1.04.59.33.3.56.67.71,1.09.08.25.14.51.14.77,0,.93,0,1.87,0,2.8,0,.28-.03.56-.11.84-.11.35-.27.66-.51.94-.42.5-.97.78-1.61.89-.13.02-.27.03-.4.04-.19,0-.38,0-.57,0-2.82,0-5.63,0-8.45,0-.07,0-.14,0-.21,0-.12,0-.22.09-.23.21,0,.04,0,.09,0,.13,0,1.53,0,3.06,0,4.59h0c0,1.49,0,2.97,0,4.46Z"/>
          <path class="cls-4" d="m273.13,166.54c-1.5,0-2.58-1.23-2.58-2.59,0-1.41,1.16-2.59,2.58-2.59,1.48,0,2.61,1.22,2.59,2.6.02,1.34-1.04,2.58-2.59,2.58Zm-1.67-12.43c-.1,0-.2,0-.3-.02-.36-.07-.6-.37-.61-.69,0-.17.04-.32.12-.47.37-.64.74-1.28,1.11-1.92.23-.4.47-.81.7-1.21.1-.18.25-.31.44-.38.37-.12.68.05.85.3.06.09.12.19.17.28.27.47.54.94.81,1.4.29.49.57.99.85,1.48.06.11.12.23.14.36.04.29-.05.52-.27.7-.12.09-.26.15-.41.16-.1,0-.21.02-.31.02-.54,0-1.07,0-1.61,0-.57,0-1.13,0-1.7,0Zm3.5,19.51c.12,0,.24.02.35.06.29.11.48.4.47.71,0,.14-.05.26-.12.38-.2.35-.4.71-.61,1.06-.28.48-.56.96-.84,1.44-.12.2-.23.4-.35.61-.07.12-.15.24-.27.33-.29.21-.67.16-.91-.04-.08-.07-.15-.15-.2-.24-.18-.31-.36-.63-.55-.94-.24-.41-.48-.83-.72-1.24-.19-.32-.37-.65-.56-.97-.08-.14-.12-.29-.11-.46.02-.28.16-.49.4-.61.12-.07.26-.09.4-.09.6,0,1.2,0,1.8,0,.6,0,1.19,0,1.79,0Zm8.01-11.42c0-.1,0-.2.03-.3.07-.34.37-.61.75-.59.15,0,.28.05.41.13.18.1.36.21.54.31.49.28.97.56,1.46.84.37.21.73.42,1.1.64.12.07.23.16.31.28.22.31.17.65-.07.91-.09.1-.2.17-.31.23-.2.11-.4.23-.59.34-.8.46-1.61.93-2.41,1.39-.15.09-.3.14-.48.14-.27,0-.49-.13-.62-.37-.08-.14-.11-.29-.11-.44,0-.45,0-.89,0-1.34,0-.15,0-.3,0-.45h0c0-.58,0-1.15,0-1.73Zm-19.61,3.55c0,.15-.03.29-.11.41-.21.35-.64.47-1.01.27-.21-.11-.41-.23-.62-.35-.43-.25-.87-.5-1.3-.75-.43-.25-.86-.5-1.29-.75-.16-.09-.28-.22-.35-.4-.12-.32,0-.67.23-.85.1-.08.21-.14.33-.21.79-.46,1.59-.92,2.39-1.38.17-.1.33-.2.5-.29.1-.06.2-.11.31-.14.34-.09.72.1.86.45.04.11.06.22.06.33,0,.61,0,1.21,0,1.82h0c0,.61,0,1.21,0,1.82Z"/>
          <path class="cls-4" d="m275.73,163.96c.02,1.34-1.04,2.58-2.59,2.58-1.5,0-2.58-1.23-2.58-2.59,0-1.41,1.16-2.59,2.58-2.59,1.48,0,2.61,1.22,2.59,2.6Z"/>
          <path class="cls-4" d="m273.16,154.11c-.57,0-1.13,0-1.7,0-.1,0-.2,0-.3-.02-.36-.07-.6-.37-.61-.69,0-.17.04-.32.12-.47.37-.64.74-1.28,1.11-1.92.23-.4.47-.81.7-1.21.1-.18.25-.31.44-.38.37-.12.68.05.85.3.06.09.12.19.17.28.27.47.54.94.81,1.4.29.49.57.99.85,1.48.06.11.12.23.14.36.04.29-.05.52-.27.7-.12.09-.26.15-.41.16-.1,0-.21.02-.31.02-.54,0-1.07,0-1.61,0Z"/>
          <path class="cls-4" d="m273.17,173.62c.6,0,1.19,0,1.79,0,.12,0,.24.02.35.06.29.11.48.4.47.71,0,.14-.05.26-.12.38-.2.35-.4.71-.61,1.06-.28.48-.56.96-.84,1.44-.12.2-.23.4-.35.61-.07.12-.15.24-.27.33-.29.21-.67.16-.91-.04-.08-.07-.15-.15-.2-.24-.18-.31-.36-.63-.55-.94-.24-.41-.48-.83-.72-1.24-.19-.32-.37-.65-.56-.97-.08-.14-.12-.29-.11-.46.02-.28.16-.49.4-.61.12-.07.26-.09.4-.09.6,0,1.2,0,1.8,0Z"/>
          <path class="cls-4" d="m282.97,163.93c0-.58,0-1.15,0-1.73,0-.1,0-.2.03-.3.07-.34.37-.61.75-.59.15,0,.28.05.41.13.18.1.36.21.54.31.49.28.97.56,1.46.84.37.21.73.42,1.1.64.12.07.23.16.31.28.22.31.17.65-.07.91-.09.1-.2.17-.31.23-.2.11-.4.23-.59.34-.8.46-1.61.93-2.41,1.39-.15.09-.3.14-.48.14-.27,0-.49-.13-.62-.37-.08-.14-.11-.29-.11-.44,0-.45,0-.89,0-1.34,0-.15,0-.3,0-.45h0Z"/>
          <path class="cls-4" d="m263.35,163.93c0,.61,0,1.21,0,1.82,0,.15-.03.29-.11.41-.21.35-.64.47-1.01.27-.21-.11-.41-.23-.62-.35-.43-.25-.87-.5-1.3-.75-.43-.25-.86-.5-1.29-.75-.16-.09-.28-.22-.35-.4-.12-.32,0-.67.23-.85.1-.08.21-.14.33-.21.79-.46,1.59-.92,2.39-1.38.17-.1.33-.2.5-.29.1-.06.2-.11.31-.14.34-.09.72.1.86.45.04.11.06.22.06.33,0,.61,0,1.21,0,1.82h0Z"/>
        </g>
        <g>
          <path class="cls-4" d="m145.26,163.9s0,.03,0,.04c0,.45,0,.9.04,1.35,0,.13.02.26.03.39.01.14.03.29.05.43.02.19.04.37.07.56.05.31.11.61.17.92.13.69.31,1.36.53,2.03.09.29.2.58.31.87.19.52.41,1.03.66,1.53.12.25.24.49.38.73.18.33.37.65.56.97.24.39.49.77.76,1.14.3.4.6.8.93,1.18.23.26.46.52.7.77.43.45.88.88,1.36,1.27.24.2.49.41.74.6.48.37.98.72,1.49,1.04.35.22.71.43,1.08.63.32.16.64.32.96.48.13.07.27.13.41.18.34.14.69.28,1.04.41.47.18.95.33,1.43.46.55.15,1.09.28,1.65.37.23.04.46.07.69.11.11.02.23.04.34.05.12.02.25.03.37.04.16.01.32.02.47.04.23.02.46.05.7.05.54,0,1.08.02,1.62-.01.3-.02.59-.03.89-.06.18-.02.35-.04.53-.06.28-.04.57-.08.85-.12.42-.07.84-.16,1.25-.26.7-.17,1.39-.38,2.06-.63.58-.22,1.15-.46,1.71-.73.46-.22.9-.47,1.33-.73.48-.29.95-.6,1.4-.93.33-.24.65-.49.96-.75.3-.25.6-.51.88-.78.49-.47.97-.96,1.4-1.48.2-.24.41-.49.6-.74.33-.43.65-.88.94-1.34.26-.41.5-.82.73-1.25.26-.49.5-.99.72-1.51.29-.69.54-1.39.74-2.1.18-.63.32-1.27.44-1.91.08-.47.14-.94.19-1.41.03-.26.05-.51.06-.77.02-.3.03-.61.03-.91,0-.25-.01-.5-.02-.74,0-.14,0-.29,0-.43-.01-.2-.03-.4-.05-.61-.02-.23-.04-.46-.07-.7-.03-.24-.07-.48-.11-.72-.06-.39-.14-.78-.23-1.17-.18-.75-.4-1.49-.67-2.22-.21-.56-.44-1.11-.7-1.64-.27-.56-.56-1.1-.89-1.62-.26-.42-.54-.84-.83-1.24-.3-.4-.6-.8-.93-1.18-.22-.25-.44-.51-.68-.75-.43-.46-.89-.89-1.38-1.3-.25-.21-.5-.41-.75-.61-.45-.35-.91-.67-1.39-.97-.39-.25-.8-.49-1.21-.7-.66-.35-1.33-.66-2.03-.93-.48-.18-.96-.35-1.45-.49-.51-.15-1.02-.28-1.54-.38-.31-.06-.62-.11-.94-.16-.17-.03-.33-.05-.5-.07-.14-.02-.29-.04-.43-.05-.16-.01-.33-.02-.49-.04-.28-.03-.56-.04-.85-.05-.51-.01-1.01-.01-1.52.02-.19.01-.39.02-.58.03,0,0,0,0-.01,0-.15.02-.31.03-.46.05-.2.02-.4.04-.59.07-.37.06-.73.13-1.1.2-.68.13-1.34.31-2,.52-.27.09-.54.19-.81.29-.47.17-.92.36-1.37.58-.34.16-.68.33-1.01.52-.34.19-.67.38-1,.59-.71.45-1.38.94-2.02,1.47-.35.29-.69.6-1.02.92-.41.39-.79.8-1.15,1.23-.21.25-.42.5-.62.76-.35.46-.69.94-1,1.43-.31.49-.6,1-.86,1.51-.31.61-.58,1.23-.82,1.87-.21.57-.4,1.14-.56,1.73-.16.6-.29,1.21-.39,1.83-.06.37-.11.73-.14,1.1-.01.12-.02.24-.03.36-.03.27-.05.54-.05.82,0,.24,0,.49,0,.73h0Zm22.69,13.45c0,.34-.06.67-.18.99-.11.28-.27.54-.46.78-.23.26-.49.47-.8.63-.23.12-.48.21-.74.25-.2.04-.4.05-.61.05-.83,0-1.67,0-2.5,0-.46,0-.9-.09-1.31-.3-.62-.32-1.06-.81-1.3-1.47-.08-.23-.13-.47-.15-.71-.01-.14-.02-.29-.02-.43,0-2.95,0-5.9,0-8.85,0-.02,0-.05,0-.07,0-.15-.1-.25-.25-.25-.41,0-.81,0-1.22,0-2.59,0-5.19,0-7.78,0-.28,0-.56-.02-.83-.09-.45-.11-.85-.33-1.19-.65-.39-.37-.63-.83-.74-1.35-.05-.21-.07-.43-.06-.65,0-.33,0-.66,0-.98-.01-.29-.02-.59-.01-.88,0-.28,0-.57.03-.85.02-.23.02-.46.08-.68.11-.42.3-.79.61-1.11.41-.43.91-.68,1.48-.8.13-.03.27-.03.4-.04.07,0,.15,0,.22,0,2.57,0,5.15,0,7.72,0,.42,0,.84,0,1.27,0,.1,0,.18-.04.24-.12.03-.03.04-.07.04-.11,0-.06,0-.13,0-.19,0-.95,0-1.9,0-2.85,0-2.01,0-4.01,0-6.02,0-.48.1-.94.32-1.36.3-.57.75-.98,1.36-1.21.28-.11.58-.17.88-.18.83-.04,1.67-.03,2.5-.02.28,0,.56.02.83.06.49.06.91.27,1.28.59.37.34.64.75.78,1.23.08.25.12.5.12.76,0,1.05,0,2.1,0,3.14,0,1.96,0,3.91,0,5.87,0,.04,0,.08,0,.12.01.17.13.28.31.28.54,0,1.08,0,1.62,0,2.46,0,4.93,0,7.39,0,.3,0,.59.03.88.12.39.12.74.31,1.04.59.33.3.56.67.71,1.09.08.25.14.51.14.77,0,.93,0,1.87,0,2.8,0,.28-.03.56-.11.84-.11.35-.27.66-.51.94-.42.5-.97.78-1.61.89-.13.02-.27.03-.4.04-.19,0-.38,0-.57,0-2.82,0-5.63,0-8.45,0-.07,0-.14,0-.21,0-.12,0-.22.09-.23.21,0,.04,0,.09,0,.13,0,1.53,0,3.06,0,4.59h0c0,1.49,0,2.97,0,4.46Z"/>
          <path class="cls-4" d="m163.87,166.54c-1.5,0-2.58-1.23-2.58-2.59,0-1.41,1.16-2.59,2.58-2.59,1.48,0,2.61,1.22,2.59,2.6.02,1.34-1.04,2.58-2.59,2.58Zm-1.67-12.43c-.1,0-.2,0-.3-.02-.36-.07-.6-.37-.61-.69,0-.17.04-.32.12-.47.37-.64.74-1.28,1.11-1.92.23-.4.47-.81.7-1.21.1-.18.25-.31.44-.38.37-.12.68.05.85.3.06.09.12.19.17.28.27.47.54.94.81,1.4.29.49.57.99.85,1.48.06.11.12.23.14.36.04.29-.05.52-.27.7-.12.09-.26.15-.41.16-.1,0-.21.02-.31.02-.54,0-1.07,0-1.61,0-.57,0-1.13,0-1.7,0Zm3.5,19.51c.12,0,.24.02.35.06.29.11.48.4.47.71,0,.14-.05.26-.12.38-.2.35-.4.71-.61,1.06-.28.48-.56.96-.84,1.44-.12.2-.23.4-.35.61-.07.12-.15.24-.27.33-.29.21-.67.16-.91-.04-.08-.07-.15-.15-.2-.24-.18-.31-.36-.63-.55-.94-.24-.41-.48-.83-.72-1.24-.19-.32-.37-.65-.56-.97-.08-.14-.12-.29-.11-.46.02-.28.16-.49.4-.61.12-.07.26-.09.4-.09.6,0,1.2,0,1.8,0,.6,0,1.19,0,1.79,0Zm8.01-11.42c0-.1,0-.2.03-.3.07-.34.37-.61.75-.59.15,0,.28.05.41.13.18.1.36.21.54.31.49.28.97.56,1.46.84.37.21.73.42,1.1.64.12.07.23.16.31.28.22.31.17.65-.07.91-.09.1-.2.17-.31.23-.2.11-.4.23-.59.34-.8.46-1.61.93-2.41,1.39-.15.09-.3.14-.48.14-.27,0-.49-.13-.62-.37-.08-.14-.11-.29-.11-.44,0-.45,0-.89,0-1.34,0-.15,0-.3,0-.45h0c0-.58,0-1.15,0-1.73Zm-19.61,3.55c0,.15-.03.29-.11.41-.21.35-.64.47-1.01.27-.21-.11-.41-.23-.62-.35-.43-.25-.87-.5-1.3-.75-.43-.25-.86-.5-1.29-.75-.16-.09-.28-.22-.35-.4-.12-.32,0-.67.23-.85.1-.08.21-.14.33-.21.79-.46,1.59-.92,2.39-1.38.17-.1.33-.2.5-.29.1-.06.2-.11.31-.14.34-.09.72.1.86.45.04.11.06.22.06.33,0,.61,0,1.21,0,1.82h0c0,.61,0,1.21,0,1.82Z"/>
          <path class="cls-4" d="m166.47,163.96c.02,1.34-1.04,2.58-2.59,2.58-1.5,0-2.58-1.23-2.58-2.59,0-1.41,1.16-2.59,2.58-2.59,1.48,0,2.61,1.22,2.59,2.6Z"/>
          <path class="cls-4" d="m163.9,154.11c-.57,0-1.13,0-1.7,0-.1,0-.2,0-.3-.02-.36-.07-.6-.37-.61-.69,0-.17.04-.32.12-.47.37-.64.74-1.28,1.11-1.92.23-.4.47-.81.7-1.21.1-.18.25-.31.44-.38.37-.12.68.05.85.3.06.09.12.19.17.28.27.47.54.94.81,1.4.29.49.57.99.85,1.48.06.11.12.23.14.36.04.29-.05.52-.27.7-.12.09-.26.15-.41.16-.1,0-.21.02-.31.02-.54,0-1.07,0-1.61,0Z"/>
          <path class="cls-4" d="m163.91,173.62c.6,0,1.19,0,1.79,0,.12,0,.24.02.35.06.29.11.48.4.47.71,0,.14-.05.26-.12.38-.2.35-.4.71-.61,1.06-.28.48-.56.96-.84,1.44-.12.2-.23.4-.35.61-.07.12-.15.24-.27.33-.29.21-.67.16-.91-.04-.08-.07-.15-.15-.2-.24-.18-.31-.36-.63-.55-.94-.24-.41-.48-.83-.72-1.24-.19-.32-.37-.65-.56-.97-.08-.14-.12-.29-.11-.46.02-.28.16-.49.4-.61.12-.07.26-.09.4-.09.6,0,1.2,0,1.8,0Z"/>
          <path class="cls-4" d="m173.71,163.93c0-.58,0-1.15,0-1.73,0-.1,0-.2.03-.3.07-.34.37-.61.75-.59.15,0,.28.05.41.13.18.1.36.21.54.31.49.28.97.56,1.46.84.37.21.73.42,1.1.64.12.07.23.16.31.28.22.31.17.65-.07.91-.09.1-.2.17-.31.23-.2.11-.4.23-.59.34-.8.46-1.61.93-2.41,1.39-.15.09-.3.14-.48.14-.27,0-.49-.13-.62-.37-.08-.14-.11-.29-.11-.44,0-.45,0-.89,0-1.34,0-.15,0-.3,0-.45h0Z"/>
          <path class="cls-4" d="m154.09,163.93c0,.61,0,1.21,0,1.82,0,.15-.03.29-.11.41-.21.35-.64.47-1.01.27-.21-.11-.41-.23-.62-.35-.43-.25-.87-.5-1.3-.75-.43-.25-.86-.5-1.29-.75-.16-.09-.28-.22-.35-.4-.12-.32,0-.67.23-.85.1-.08.21-.14.33-.21.79-.46,1.59-.92,2.39-1.38.17-.1.33-.2.5-.29.1-.06.2-.11.31-.14.34-.09.72.1.86.45.04.11.06.22.06.33,0,.61,0,1.21,0,1.82h0Z"/>
        </g>
        <g>
          <path class="cls-4" d="m36,163.9s0,.03,0,.04c0,.45,0,.9.04,1.35,0,.13.02.26.03.39.01.14.03.29.05.43.02.19.04.37.07.56.05.31.11.61.17.92.13.69.31,1.36.53,2.03.09.29.2.58.31.87.19.52.41,1.03.66,1.53.12.25.24.49.38.73.18.33.37.65.56.97.24.39.49.77.76,1.14.3.4.6.8.93,1.18.23.26.46.52.7.77.43.45.88.88,1.36,1.27.24.2.49.41.74.6.48.37.98.72,1.49,1.04.35.22.71.43,1.08.63.32.16.64.32.96.48.13.07.27.13.41.18.34.14.69.28,1.04.41.47.18.95.33,1.43.46.55.15,1.09.28,1.65.37.23.04.46.07.69.11.11.02.23.04.34.05.12.02.25.03.37.04.16.01.32.02.47.04.23.02.46.05.7.05.54,0,1.08.02,1.62-.01.3-.02.59-.03.89-.06.18-.02.35-.04.53-.06.28-.04.57-.08.85-.12.42-.07.84-.16,1.25-.26.7-.17,1.39-.38,2.06-.63.58-.22,1.15-.46,1.71-.73.46-.22.9-.47,1.33-.73.48-.29.95-.6,1.4-.93.33-.24.65-.49.96-.75.3-.25.6-.51.88-.78.49-.47.97-.96,1.4-1.48.2-.24.41-.49.6-.74.33-.43.65-.88.94-1.34.26-.41.5-.82.73-1.25.26-.49.5-.99.72-1.51.29-.69.54-1.39.74-2.1.18-.63.32-1.27.44-1.91.08-.47.14-.94.19-1.41.03-.26.05-.51.06-.77.02-.3.03-.61.03-.91,0-.25-.01-.5-.02-.74,0-.14,0-.29,0-.43-.01-.2-.03-.4-.05-.61-.02-.23-.04-.46-.07-.7-.03-.24-.07-.48-.11-.72-.06-.39-.14-.78-.23-1.17-.18-.75-.4-1.49-.67-2.22-.21-.56-.44-1.11-.7-1.64-.27-.56-.56-1.1-.89-1.62-.26-.42-.54-.84-.83-1.24-.3-.4-.6-.8-.93-1.18-.22-.25-.44-.51-.68-.75-.43-.46-.89-.89-1.38-1.3-.25-.21-.5-.41-.75-.61-.45-.35-.91-.67-1.39-.97-.39-.25-.8-.49-1.21-.7-.66-.35-1.33-.66-2.03-.93-.48-.18-.96-.35-1.45-.49-.51-.15-1.02-.28-1.54-.38-.31-.06-.62-.11-.94-.16-.17-.03-.33-.05-.5-.07-.14-.02-.29-.04-.43-.05-.16-.01-.33-.02-.49-.04-.28-.03-.56-.04-.85-.05-.51-.01-1.01-.01-1.52.02-.19.01-.39.02-.58.03,0,0,0,0-.01,0-.15.02-.31.03-.46.05-.2.02-.4.04-.59.07-.37.06-.73.13-1.1.2-.68.13-1.34.31-2,.52-.27.09-.54.19-.81.29-.47.17-.92.36-1.37.58-.34.16-.68.33-1.01.52-.34.19-.67.38-1,.59-.71.45-1.38.94-2.02,1.47-.35.29-.69.6-1.02.92-.41.39-.79.8-1.15,1.23-.21.25-.42.5-.62.76-.35.46-.69.94-1,1.43-.31.49-.6,1-.86,1.51-.31.61-.58,1.23-.82,1.87-.21.57-.4,1.14-.56,1.73-.16.6-.29,1.21-.39,1.83-.06.37-.11.73-.14,1.1-.01.12-.02.24-.03.36-.03.27-.05.54-.05.82,0,.24,0,.49,0,.73h0Zm22.69,13.45c0,.34-.06.67-.18.99-.11.28-.27.54-.46.78-.23.26-.49.47-.8.63-.23.12-.48.21-.74.25-.2.04-.4.05-.61.05-.83,0-1.67,0-2.5,0-.46,0-.9-.09-1.31-.3-.62-.32-1.06-.81-1.3-1.47-.08-.23-.13-.47-.15-.71-.01-.14-.02-.29-.02-.43,0-2.95,0-5.9,0-8.85,0-.02,0-.05,0-.07,0-.15-.1-.25-.25-.25-.41,0-.81,0-1.22,0-2.59,0-5.19,0-7.78,0-.28,0-.56-.02-.83-.09-.45-.11-.85-.33-1.19-.65-.39-.37-.63-.83-.74-1.35-.05-.21-.07-.43-.06-.65,0-.33,0-.66,0-.98-.01-.29-.02-.59-.01-.88,0-.28,0-.57.03-.85.02-.23.02-.46.08-.68.11-.42.3-.79.61-1.11.41-.43.91-.68,1.48-.8.13-.03.27-.03.4-.04.07,0,.15,0,.22,0,2.57,0,5.15,0,7.72,0,.42,0,.84,0,1.27,0,.1,0,.18-.04.24-.12.03-.03.04-.07.04-.11,0-.06,0-.13,0-.19,0-.95,0-1.9,0-2.85,0-2.01,0-4.01,0-6.02,0-.48.1-.94.32-1.36.3-.57.75-.98,1.36-1.21.28-.11.58-.17.88-.18.83-.04,1.67-.03,2.5-.02.28,0,.56.02.83.06.49.06.91.27,1.28.59.37.34.64.75.78,1.23.08.25.12.5.12.76,0,1.05,0,2.1,0,3.14,0,1.96,0,3.91,0,5.87,0,.04,0,.08,0,.12.01.17.13.28.31.28.54,0,1.08,0,1.62,0,2.46,0,4.93,0,7.39,0,.3,0,.59.03.88.12.39.12.74.31,1.04.59.33.3.56.67.71,1.09.08.25.14.51.14.77,0,.93,0,1.87,0,2.8,0,.28-.03.56-.11.84-.11.35-.27.66-.51.94-.42.5-.97.78-1.61.89-.13.02-.27.03-.4.04-.19,0-.38,0-.57,0-2.82,0-5.63,0-8.45,0-.07,0-.14,0-.21,0-.12,0-.22.09-.23.21,0,.04,0,.09,0,.13,0,1.53,0,3.06,0,4.59h0c0,1.49,0,2.97,0,4.46Z"/>
          <path class="cls-4" d="m54.61,166.54c-1.5,0-2.58-1.23-2.58-2.59,0-1.41,1.16-2.59,2.58-2.59,1.48,0,2.61,1.22,2.59,2.6.02,1.34-1.04,2.58-2.59,2.58Zm-1.67-12.43c-.1,0-.2,0-.3-.02-.36-.07-.6-.37-.61-.69,0-.17.04-.32.12-.47.37-.64.74-1.28,1.11-1.92.23-.4.47-.81.7-1.21.1-.18.25-.31.44-.38.37-.12.68.05.85.3.06.09.12.19.17.28.27.47.54.94.81,1.4.29.49.57.99.85,1.48.06.11.12.23.14.36.04.29-.05.52-.27.7-.12.09-.26.15-.41.16-.1,0-.21.02-.31.02-.54,0-1.07,0-1.61,0-.57,0-1.13,0-1.7,0Zm3.5,19.51c.12,0,.24.02.35.06.29.11.48.4.47.71,0,.14-.05.26-.12.38-.2.35-.4.71-.61,1.06-.28.48-.56.96-.84,1.44-.12.2-.23.4-.35.61-.07.12-.15.24-.27.33-.29.21-.67.16-.91-.04-.08-.07-.15-.15-.2-.24-.18-.31-.36-.63-.55-.94-.24-.41-.48-.83-.72-1.24-.19-.32-.37-.65-.56-.97-.08-.14-.12-.29-.11-.46.02-.28.16-.49.4-.61.12-.07.26-.09.4-.09.6,0,1.2,0,1.8,0,.6,0,1.19,0,1.79,0Zm8.01-11.42c0-.1,0-.2.03-.3.07-.34.37-.61.75-.59.15,0,.28.05.41.13.18.1.36.21.54.31.49.28.97.56,1.46.84.37.21.73.42,1.1.64.12.07.23.16.31.28.22.31.17.65-.07.91-.09.1-.2.17-.31.23-.2.11-.4.23-.59.34-.8.46-1.61.93-2.41,1.39-.15.09-.3.14-.48.14-.27,0-.49-.13-.62-.37-.08-.14-.11-.29-.11-.44,0-.45,0-.89,0-1.34,0-.15,0-.3,0-.45h0c0-.58,0-1.15,0-1.73Zm-19.61,3.55c0,.15-.03.29-.11.41-.21.35-.64.47-1.01.27-.21-.11-.41-.23-.62-.35-.43-.25-.87-.5-1.3-.75-.43-.25-.86-.5-1.29-.75-.16-.09-.28-.22-.35-.4-.12-.32,0-.67.23-.85.1-.08.21-.14.33-.21.79-.46,1.59-.92,2.39-1.38.17-.1.33-.2.5-.29.1-.06.2-.11.31-.14.34-.09.72.1.86.45.04.11.06.22.06.33,0,.61,0,1.21,0,1.82h0c0,.61,0,1.21,0,1.82Z"/>
          <path class="cls-4" d="m57.21,163.96c.02,1.34-1.04,2.58-2.59,2.58-1.5,0-2.58-1.23-2.58-2.59,0-1.41,1.16-2.59,2.58-2.59,1.48,0,2.61,1.22,2.59,2.6Z"/>
          <path class="cls-4" d="m54.64,154.11c-.57,0-1.13,0-1.7,0-.1,0-.2,0-.3-.02-.36-.07-.6-.37-.61-.69,0-.17.04-.32.12-.47.37-.64.74-1.28,1.11-1.92.23-.4.47-.81.7-1.21.1-.18.25-.31.44-.38.37-.12.68.05.85.3.06.09.12.19.17.28.27.47.54.94.81,1.4.29.49.57.99.85,1.48.06.11.12.23.14.36.04.29-.05.52-.27.7-.12.09-.26.15-.41.16-.1,0-.21.02-.31.02-.54,0-1.07,0-1.61,0Z"/>
          <path class="cls-4" d="m54.65,173.62c.6,0,1.19,0,1.79,0,.12,0,.24.02.35.06.29.11.48.4.47.71,0,.14-.05.26-.12.38-.2.35-.4.71-.61,1.06-.28.48-.56.96-.84,1.44-.12.2-.23.4-.35.61-.07.12-.15.24-.27.33-.29.21-.67.16-.91-.04-.08-.07-.15-.15-.2-.24-.18-.31-.36-.63-.55-.94-.24-.41-.48-.83-.72-1.24-.19-.32-.37-.65-.56-.97-.08-.14-.12-.29-.11-.46.02-.28.16-.49.4-.61.12-.07.26-.09.4-.09.6,0,1.2,0,1.8,0Z"/>
          <path class="cls-4" d="m64.45,163.93c0-.58,0-1.15,0-1.73,0-.1,0-.2.03-.3.07-.34.37-.61.75-.59.15,0,.28.05.41.13.18.1.36.21.54.31.49.28.97.56,1.46.84.37.21.73.42,1.1.64.12.07.23.16.31.28.22.31.17.65-.07.91-.09.1-.2.17-.31.23-.2.11-.4.23-.59.34-.8.46-1.61.93-2.41,1.39-.15.09-.3.14-.48.14-.27,0-.49-.13-.62-.37-.08-.14-.11-.29-.11-.44,0-.45,0-.89,0-1.34,0-.15,0-.3,0-.45h0Z"/>
          <path class="cls-4" d="m44.83,163.93c0,.61,0,1.21,0,1.82,0,.15-.03.29-.11.41-.21.35-.64.47-1.01.27-.21-.11-.41-.23-.62-.35-.43-.25-.87-.5-1.3-.75-.43-.25-.86-.5-1.29-.75-.16-.09-.28-.22-.35-.4-.12-.32,0-.67.23-.85.1-.08.21-.14.33-.21.79-.46,1.59-.92,2.39-1.38.17-.1.33-.2.5-.29.1-.06.2-.11.31-.14.34-.09.72.1.86.45.04.11.06.22.06.33,0,.61,0,1.21,0,1.82h0Z"/>
        </g>
        <g>
          <path class="cls-4" d="m290.94,54.63s0,.03,0,.04c0,.45,0,.9.04,1.35,0,.13.02.26.03.39.01.14.03.29.05.43.02.19.04.37.07.56.05.31.11.61.17.92.13.69.31,1.36.53,2.03.09.29.2.58.31.87.19.52.41,1.03.66,1.53.12.25.24.49.38.73.18.33.37.65.56.97.24.39.49.77.76,1.14.3.4.6.8.93,1.18.23.26.46.52.7.77.43.45.88.88,1.36,1.27.24.2.49.41.74.6.48.37.98.72,1.49,1.04.35.22.71.43,1.08.63.32.16.64.32.96.48.13.07.27.13.41.18.34.14.69.28,1.04.41.47.18.95.33,1.43.46.55.15,1.09.28,1.65.37.23.04.46.07.69.11.11.02.23.04.34.05.12.02.25.03.37.04.16.01.32.02.47.04.23.02.46.05.7.05.54,0,1.08.02,1.62-.01.3-.02.59-.03.89-.06.18-.02.35-.04.53-.06.28-.04.57-.08.85-.12.42-.07.84-.16,1.25-.26.7-.17,1.39-.38,2.06-.63.58-.22,1.15-.46,1.71-.73.46-.22.9-.47,1.33-.73.48-.29.95-.6,1.4-.93.33-.24.65-.49.96-.75.3-.25.6-.51.88-.78.49-.47.97-.96,1.4-1.48.2-.24.41-.49.6-.74.33-.43.65-.88.94-1.34.26-.41.5-.82.73-1.25.26-.49.5-.99.72-1.51.29-.69.54-1.39.74-2.1.18-.63.32-1.27.44-1.91.08-.47.14-.94.19-1.41.03-.26.05-.51.06-.77.02-.3.03-.61.03-.91,0-.25-.01-.5-.02-.74,0-.14,0-.29,0-.43-.01-.2-.03-.4-.05-.61-.02-.23-.04-.46-.07-.7-.03-.24-.07-.48-.11-.72-.06-.39-.14-.78-.23-1.17-.18-.75-.4-1.49-.67-2.22-.21-.56-.44-1.11-.7-1.64-.27-.56-.56-1.1-.89-1.62-.26-.42-.54-.84-.83-1.24-.3-.4-.6-.8-.93-1.18-.22-.25-.44-.51-.68-.75-.43-.46-.89-.89-1.38-1.3-.25-.21-.5-.41-.75-.61-.45-.35-.91-.67-1.39-.97-.39-.25-.8-.49-1.21-.7-.66-.35-1.33-.66-2.03-.93-.48-.18-.96-.35-1.45-.49-.51-.15-1.02-.28-1.54-.38-.31-.06-.62-.11-.94-.16-.17-.03-.33-.05-.5-.07-.14-.02-.29-.04-.43-.05-.16-.01-.33-.02-.49-.04-.28-.03-.56-.04-.85-.05-.51-.01-1.01-.01-1.52.02-.19.01-.39.02-.58.03,0,0,0,0-.01,0-.15.02-.31.03-.46.05-.2.02-.4.04-.59.07-.37.06-.73.13-1.1.2-.68.13-1.34.31-2,.52-.27.09-.54.19-.81.29-.47.17-.92.36-1.37.58-.34.16-.68.33-1.01.52-.34.19-.67.38-1,.59-.71.45-1.38.94-2.02,1.47-.35.29-.69.6-1.02.92-.41.39-.79.8-1.15,1.23-.21.25-.42.5-.62.76-.35.46-.69.94-1,1.43-.31.49-.6,1-.86,1.51-.31.61-.58,1.23-.82,1.87-.21.57-.4,1.14-.56,1.73-.16.6-.29,1.21-.39,1.83-.06.37-.11.73-.14,1.1-.01.12-.02.24-.03.36-.03.27-.05.54-.05.82,0,.24,0,.49,0,.73h0Zm22.69,13.45c0,.34-.06.67-.18.99-.11.28-.27.54-.46.78-.23.26-.49.47-.8.63-.23.12-.48.21-.74.25-.2.04-.4.05-.61.05-.83,0-1.67,0-2.5,0-.46,0-.9-.09-1.31-.3-.62-.32-1.06-.81-1.3-1.47-.08-.23-.13-.47-.15-.71-.01-.14-.02-.29-.02-.43,0-2.95,0-5.9,0-8.85,0-.02,0-.05,0-.07,0-.15-.1-.25-.25-.25-.41,0-.81,0-1.22,0-2.59,0-5.19,0-7.78,0-.28,0-.56-.02-.83-.09-.45-.11-.85-.33-1.19-.65-.39-.37-.63-.83-.74-1.35-.05-.21-.07-.43-.06-.65,0-.33,0-.66,0-.98-.01-.29-.02-.59-.01-.88,0-.28,0-.57.03-.85.02-.23.02-.46.08-.68.11-.42.3-.79.61-1.11.41-.43.91-.68,1.48-.8.13-.03.27-.03.4-.04.07,0,.15,0,.22,0,2.57,0,5.15,0,7.72,0,.42,0,.84,0,1.27,0,.1,0,.18-.04.24-.12.03-.03.04-.07.04-.11,0-.06,0-.13,0-.19,0-.95,0-1.9,0-2.85,0-2.01,0-4.01,0-6.02,0-.48.1-.94.32-1.36.3-.57.75-.98,1.36-1.21.28-.11.58-.17.88-.18.83-.04,1.67-.03,2.5-.02.28,0,.56.02.83.06.49.06.91.27,1.28.59.37.34.64.75.78,1.23.08.25.12.5.12.76,0,1.05,0,2.1,0,3.14,0,1.96,0,3.91,0,5.87,0,.04,0,.08,0,.12.01.17.13.28.31.28.54,0,1.08,0,1.62,0,2.46,0,4.93,0,7.39,0,.3,0,.59.03.88.12.39.12.74.31,1.04.59.33.3.56.67.71,1.09.08.25.14.51.14.77,0,.93,0,1.87,0,2.8,0,.28-.03.56-.11.84-.11.35-.27.66-.51.94-.42.5-.97.78-1.61.89-.13.02-.27.03-.4.04-.19,0-.38,0-.57,0-2.82,0-5.63,0-8.45,0-.07,0-.14,0-.21,0-.12,0-.22.09-.23.21,0,.04,0,.09,0,.13,0,1.53,0,3.06,0,4.59h0c0,1.49,0,2.97,0,4.46Z"/>
          <path class="cls-4" d="m309.56,57.28c-1.5,0-2.58-1.23-2.58-2.59,0-1.41,1.16-2.59,2.58-2.59,1.48,0,2.61,1.22,2.59,2.6.02,1.34-1.04,2.58-2.59,2.58Zm-1.67-12.43c-.1,0-.2,0-.3-.02-.36-.07-.6-.37-.61-.69,0-.17.04-.32.12-.47.37-.64.74-1.28,1.11-1.92.23-.4.47-.81.7-1.21.1-.18.25-.31.44-.38.37-.12.68.05.85.3.06.09.12.19.17.28.27.47.54.94.81,1.4.29.49.57.99.85,1.48.06.11.12.23.14.36.04.29-.05.52-.27.7-.12.09-.26.15-.41.16-.1,0-.21.02-.31.02-.54,0-1.07,0-1.61,0-.57,0-1.13,0-1.7,0Zm3.5,19.51c.12,0,.24.02.35.06.29.11.48.4.47.71,0,.14-.05.26-.12.38-.2.35-.4.71-.61,1.06-.28.48-.56.96-.84,1.44-.12.2-.23.4-.35.61-.07.12-.15.24-.27.33-.29.21-.67.16-.91-.04-.08-.07-.15-.15-.2-.24-.18-.31-.36-.63-.55-.94-.24-.41-.48-.83-.72-1.24-.19-.32-.37-.65-.56-.97-.08-.14-.12-.29-.11-.46.02-.28.16-.49.4-.61.12-.07.26-.09.4-.09.6,0,1.2,0,1.8,0,.6,0,1.19,0,1.79,0Zm8.01-11.42c0-.1,0-.2.03-.3.07-.34.37-.61.75-.59.15,0,.28.05.41.13.18.1.36.21.54.31.49.28.97.56,1.46.84.37.21.73.42,1.1.64.12.07.23.16.31.28.22.31.17.65-.07.91-.09.1-.2.17-.31.23-.2.11-.4.23-.59.34-.8.46-1.61.93-2.41,1.39-.15.09-.3.14-.48.14-.27,0-.49-.13-.62-.37-.08-.14-.11-.29-.11-.44,0-.45,0-.89,0-1.34,0-.15,0-.3,0-.45h0c0-.58,0-1.15,0-1.73Zm-19.61,3.55c0,.15-.03.29-.11.41-.21.35-.64.47-1.01.27-.21-.11-.41-.23-.62-.35-.43-.25-.87-.5-1.3-.75-.43-.25-.86-.5-1.29-.75-.16-.09-.28-.22-.35-.4-.12-.32,0-.67.23-.85.1-.08.21-.14.33-.21.79-.46,1.59-.92,2.39-1.38.17-.1.33-.2.5-.29.1-.06.2-.11.31-.14.34-.09.72.1.86.45.04.11.06.22.06.33,0,.61,0,1.21,0,1.82h0c0,.61,0,1.21,0,1.82Z"/>
          <path class="cls-4" d="m312.15,54.69c.02,1.34-1.04,2.58-2.59,2.58-1.5,0-2.58-1.23-2.58-2.59,0-1.41,1.16-2.59,2.58-2.59,1.48,0,2.61,1.22,2.59,2.6Z"/>
          <path class="cls-4" d="m309.58,44.85c-.57,0-1.13,0-1.7,0-.1,0-.2,0-.3-.02-.36-.07-.6-.37-.61-.69,0-.17.04-.32.12-.47.37-.64.74-1.28,1.11-1.92.23-.4.47-.81.7-1.21.1-.18.25-.31.44-.38.37-.12.68.05.85.3.06.09.12.19.17.28.27.47.54.94.81,1.4.29.49.57.99.85,1.48.06.11.12.23.14.36.04.29-.05.52-.27.7-.12.09-.26.15-.41.16-.1,0-.21.02-.31.02-.54,0-1.07,0-1.61,0Z"/>
          <path class="cls-4" d="m309.59,64.35c.6,0,1.19,0,1.79,0,.12,0,.24.02.35.06.29.11.48.4.47.71,0,.14-.05.26-.12.38-.2.35-.4.71-.61,1.06-.28.48-.56.96-.84,1.44-.12.2-.23.4-.35.61-.07.12-.15.24-.27.33-.29.21-.67.16-.91-.04-.08-.07-.15-.15-.2-.24-.18-.31-.36-.63-.55-.94-.24-.41-.48-.83-.72-1.24-.19-.32-.37-.65-.56-.97-.08-.14-.12-.29-.11-.46.02-.28.16-.49.4-.61.12-.07.26-.09.4-.09.6,0,1.2,0,1.8,0Z"/>
          <path class="cls-4" d="m319.39,54.66c0-.58,0-1.15,0-1.73,0-.1,0-.2.03-.3.07-.34.37-.61.75-.59.15,0,.28.05.41.13.18.1.36.21.54.31.49.28.97.56,1.46.84.37.21.73.42,1.1.64.12.07.23.16.31.28.22.31.17.65-.07.91-.09.1-.2.17-.31.23-.2.11-.4.23-.59.34-.8.46-1.61.93-2.41,1.39-.15.09-.3.14-.48.14-.27,0-.49-.13-.62-.37-.08-.14-.11-.29-.11-.44,0-.45,0-.89,0-1.34,0-.15,0-.3,0-.45h0Z"/>
          <path class="cls-4" d="m299.77,54.66c0,.61,0,1.21,0,1.82,0,.15-.03.29-.11.41-.21.35-.64.47-1.01.27-.21-.11-.41-.23-.62-.35-.43-.25-.87-.5-1.3-.75-.43-.25-.86-.5-1.29-.75-.16-.09-.28-.22-.35-.4-.12-.32,0-.67.23-.85.1-.08.21-.14.33-.21.79-.46,1.59-.92,2.39-1.38.17-.1.33-.2.5-.29.1-.06.2-.11.31-.14.34-.09.72.1.86.45.04.11.06.22.06.33,0,.61,0,1.21,0,1.82h0Z"/>
        </g>
        <g>
          <path class="cls-4" d="m181.68,54.63s0,.03,0,.04c0,.45,0,.9.04,1.35,0,.13.02.26.03.39.01.14.03.29.05.43.02.19.04.37.07.56.05.31.11.61.17.92.13.69.31,1.36.53,2.03.09.29.2.58.31.87.19.52.41,1.03.66,1.53.12.25.24.49.38.73.18.33.37.65.56.97.24.39.49.77.76,1.14.3.4.6.8.93,1.18.23.26.46.52.7.77.43.45.88.88,1.36,1.27.24.2.49.41.74.6.48.37.98.72,1.49,1.04.35.22.71.43,1.08.63.32.16.64.32.96.48.13.07.27.13.41.18.34.14.69.28,1.04.41.47.18.95.33,1.43.46.55.15,1.09.28,1.65.37.23.04.46.07.69.11.11.02.23.04.34.05.12.02.25.03.37.04.16.01.32.02.47.04.23.02.46.05.7.05.54,0,1.08.02,1.62-.01.3-.02.59-.03.89-.06.18-.02.35-.04.53-.06.28-.04.57-.08.85-.12.42-.07.84-.16,1.25-.26.7-.17,1.39-.38,2.06-.63.58-.22,1.15-.46,1.71-.73.46-.22.9-.47,1.33-.73.48-.29.95-.6,1.4-.93.33-.24.65-.49.96-.75.3-.25.6-.51.88-.78.49-.47.97-.96,1.4-1.48.2-.24.41-.49.6-.74.33-.43.65-.88.94-1.34.26-.41.5-.82.73-1.25.26-.49.5-.99.72-1.51.29-.69.54-1.39.74-2.1.18-.63.32-1.27.44-1.91.08-.47.14-.94.19-1.41.03-.26.05-.51.06-.77.02-.3.03-.61.03-.91,0-.25-.01-.5-.02-.74,0-.14,0-.29,0-.43-.01-.2-.03-.4-.05-.61-.02-.23-.04-.46-.07-.7-.03-.24-.07-.48-.11-.72-.06-.39-.14-.78-.23-1.17-.18-.75-.4-1.49-.67-2.22-.21-.56-.44-1.11-.7-1.64-.27-.56-.56-1.1-.89-1.62-.26-.42-.54-.84-.83-1.24-.3-.4-.6-.8-.93-1.18-.22-.25-.44-.51-.68-.75-.43-.46-.89-.89-1.38-1.3-.25-.21-.5-.41-.75-.61-.45-.35-.91-.67-1.39-.97-.39-.25-.8-.49-1.21-.7-.66-.35-1.33-.66-2.03-.93-.48-.18-.96-.35-1.45-.49-.51-.15-1.02-.28-1.54-.38-.31-.06-.62-.11-.94-.16-.17-.03-.33-.05-.5-.07-.14-.02-.29-.04-.43-.05-.16-.01-.33-.02-.49-.04-.28-.03-.56-.04-.85-.05-.51-.01-1.01-.01-1.52.02-.19.01-.39.02-.58.03,0,0,0,0-.01,0-.15.02-.31.03-.46.05-.2.02-.4.04-.59.07-.37.06-.73.13-1.1.2-.68.13-1.34.31-2,.52-.27.09-.54.19-.81.29-.47.17-.92.36-1.37.58-.34.16-.68.33-1.01.52-.34.19-.67.38-1,.59-.71.45-1.38.94-2.02,1.47-.35.29-.69.6-1.02.92-.41.39-.79.8-1.15,1.23-.21.25-.42.5-.62.76-.35.46-.69.94-1,1.43-.31.49-.6,1-.86,1.51-.31.61-.58,1.23-.82,1.87-.21.57-.4,1.14-.56,1.73-.16.6-.29,1.21-.39,1.83-.06.37-.11.73-.14,1.1-.01.12-.02.24-.03.36-.03.27-.05.54-.05.82,0,.24,0,.49,0,.73h0Zm22.69,13.45c0,.34-.06.67-.18.99-.11.28-.27.54-.46.78-.23.26-.49.47-.8.63-.23.12-.48.21-.74.25-.2.04-.4.05-.61.05-.83,0-1.67,0-2.5,0-.46,0-.9-.09-1.31-.3-.62-.32-1.06-.81-1.3-1.47-.08-.23-.13-.47-.15-.71-.01-.14-.02-.29-.02-.43,0-2.95,0-5.9,0-8.85,0-.02,0-.05,0-.07,0-.15-.1-.25-.25-.25-.41,0-.81,0-1.22,0-2.59,0-5.19,0-7.78,0-.28,0-.56-.02-.83-.09-.45-.11-.85-.33-1.19-.65-.39-.37-.63-.83-.74-1.35-.05-.21-.07-.43-.06-.65,0-.33,0-.66,0-.98-.01-.29-.02-.59-.01-.88,0-.28,0-.57.03-.85.02-.23.02-.46.08-.68.11-.42.3-.79.61-1.11.41-.43.91-.68,1.48-.8.13-.03.27-.03.4-.04.07,0,.15,0,.22,0,2.57,0,5.15,0,7.72,0,.42,0,.84,0,1.27,0,.1,0,.18-.04.24-.12.03-.03.04-.07.04-.11,0-.06,0-.13,0-.19,0-.95,0-1.9,0-2.85,0-2.01,0-4.01,0-6.02,0-.48.1-.94.32-1.36.3-.57.75-.98,1.36-1.21.28-.11.58-.17.88-.18.83-.04,1.67-.03,2.5-.02.28,0,.56.02.83.06.49.06.91.27,1.28.59.37.34.64.75.78,1.23.08.25.12.5.12.76,0,1.05,0,2.1,0,3.14,0,1.96,0,3.91,0,5.87,0,.04,0,.08,0,.12.01.17.13.28.31.28.54,0,1.08,0,1.62,0,2.46,0,4.93,0,7.39,0,.3,0,.59.03.88.12.39.12.74.31,1.04.59.33.3.56.67.71,1.09.08.25.14.51.14.77,0,.93,0,1.87,0,2.8,0,.28-.03.56-.11.84-.11.35-.27.66-.51.94-.42.5-.97.78-1.61.89-.13.02-.27.03-.4.04-.19,0-.38,0-.57,0-2.82,0-5.63,0-8.45,0-.07,0-.14,0-.21,0-.12,0-.22.09-.23.21,0,.04,0,.09,0,.13,0,1.53,0,3.06,0,4.59h0c0,1.49,0,2.97,0,4.46Z"/>
          <path class="cls-4" d="m200.29,57.28c-1.5,0-2.58-1.23-2.58-2.59,0-1.41,1.16-2.59,2.58-2.59,1.48,0,2.61,1.22,2.59,2.6.02,1.34-1.04,2.58-2.59,2.58Zm-1.67-12.43c-.1,0-.2,0-.3-.02-.36-.07-.6-.37-.61-.69,0-.17.04-.32.12-.47.37-.64.74-1.28,1.11-1.92.23-.4.47-.81.7-1.21.1-.18.25-.31.44-.38.37-.12.68.05.85.3.06.09.12.19.17.28.27.47.54.94.81,1.4.29.49.57.99.85,1.48.06.11.12.23.14.36.04.29-.05.52-.27.7-.12.09-.26.15-.41.16-.1,0-.21.02-.31.02-.54,0-1.07,0-1.61,0-.57,0-1.13,0-1.7,0Zm3.5,19.51c.12,0,.24.02.35.06.29.11.48.4.47.71,0,.14-.05.26-.12.38-.2.35-.4.71-.61,1.06-.28.48-.56.96-.84,1.44-.12.2-.23.4-.35.61-.07.12-.15.24-.27.33-.29.21-.67.16-.91-.04-.08-.07-.15-.15-.2-.24-.18-.31-.36-.63-.55-.94-.24-.41-.48-.83-.72-1.24-.19-.32-.37-.65-.56-.97-.08-.14-.12-.29-.11-.46.02-.28.16-.49.4-.61.12-.07.26-.09.4-.09.6,0,1.2,0,1.8,0,.6,0,1.19,0,1.79,0Zm8.01-11.42c0-.1,0-.2.03-.3.07-.34.37-.61.75-.59.15,0,.28.05.41.13.18.1.36.21.54.31.49.28.97.56,1.46.84.37.21.73.42,1.1.64.12.07.23.16.31.28.22.31.17.65-.07.91-.09.1-.2.17-.31.23-.2.11-.4.23-.59.34-.8.46-1.61.93-2.41,1.39-.15.09-.3.14-.48.14-.27,0-.49-.13-.62-.37-.08-.14-.11-.29-.11-.44,0-.45,0-.89,0-1.34,0-.15,0-.3,0-.45h0c0-.58,0-1.15,0-1.73Zm-19.61,3.55c0,.15-.03.29-.11.41-.21.35-.64.47-1.01.27-.21-.11-.41-.23-.62-.35-.43-.25-.87-.5-1.3-.75-.43-.25-.86-.5-1.29-.75-.16-.09-.28-.22-.35-.4-.12-.32,0-.67.23-.85.1-.08.21-.14.33-.21.79-.46,1.59-.92,2.39-1.38.17-.1.33-.2.5-.29.1-.06.2-.11.31-.14.34-.09.72.1.86.45.04.11.06.22.06.33,0,.61,0,1.21,0,1.82h0c0,.61,0,1.21,0,1.82Z"/>
          <path class="cls-4" d="m202.89,54.69c.02,1.34-1.04,2.58-2.59,2.58-1.5,0-2.58-1.23-2.58-2.59,0-1.41,1.16-2.59,2.58-2.59,1.48,0,2.61,1.22,2.59,2.6Z"/>
          <path class="cls-4" d="m200.32,44.85c-.57,0-1.13,0-1.7,0-.1,0-.2,0-.3-.02-.36-.07-.6-.37-.61-.69,0-.17.04-.32.12-.47.37-.64.74-1.28,1.11-1.92.23-.4.47-.81.7-1.21.1-.18.25-.31.44-.38.37-.12.68.05.85.3.06.09.12.19.17.28.27.47.54.94.81,1.4.29.49.57.99.85,1.48.06.11.12.23.14.36.04.29-.05.52-.27.7-.12.09-.26.15-.41.16-.1,0-.21.02-.31.02-.54,0-1.07,0-1.61,0Z"/>
          <path class="cls-4" d="m200.33,64.35c.6,0,1.19,0,1.79,0,.12,0,.24.02.35.06.29.11.48.4.47.71,0,.14-.05.26-.12.38-.2.35-.4.71-.61,1.06-.28.48-.56.96-.84,1.44-.12.2-.23.4-.35.61-.07.12-.15.24-.27.33-.29.21-.67.16-.91-.04-.08-.07-.15-.15-.2-.24-.18-.31-.36-.63-.55-.94-.24-.41-.48-.83-.72-1.24-.19-.32-.37-.65-.56-.97-.08-.14-.12-.29-.11-.46.02-.28.16-.49.4-.61.12-.07.26-.09.4-.09.6,0,1.2,0,1.8,0Z"/>
          <path class="cls-4" d="m210.13,54.66c0-.58,0-1.15,0-1.73,0-.1,0-.2.03-.3.07-.34.37-.61.75-.59.15,0,.28.05.41.13.18.1.36.21.54.31.49.28.97.56,1.46.84.37.21.73.42,1.1.64.12.07.23.16.31.28.22.31.17.65-.07.91-.09.1-.2.17-.31.23-.2.11-.4.23-.59.34-.8.46-1.61.93-2.41,1.39-.15.09-.3.14-.48.14-.27,0-.49-.13-.62-.37-.08-.14-.11-.29-.11-.44,0-.45,0-.89,0-1.34,0-.15,0-.3,0-.45h0Z"/>
          <path class="cls-4" d="m190.51,54.66c0,.61,0,1.21,0,1.82,0,.15-.03.29-.11.41-.21.35-.64.47-1.01.27-.21-.11-.41-.23-.62-.35-.43-.25-.87-.5-1.3-.75-.43-.25-.86-.5-1.29-.75-.16-.09-.28-.22-.35-.4-.12-.32,0-.67.23-.85.1-.08.21-.14.33-.21.79-.46,1.59-.92,2.39-1.38.17-.1.33-.2.5-.29.1-.06.2-.11.31-.14.34-.09.72.1.86.45.04.11.06.22.06.33,0,.61,0,1.21,0,1.82h0Z"/>
        </g>
        <g>
          <path class="cls-4" d="m72.42,54.63s0,.03,0,.04c0,.45,0,.9.04,1.35,0,.13.02.26.03.39.01.14.03.29.05.43.02.19.04.37.07.56.05.31.11.61.17.92.13.69.31,1.36.53,2.03.09.29.2.58.31.87.19.52.41,1.03.66,1.53.12.25.24.49.38.73.18.33.37.65.56.97.24.39.49.77.76,1.14.3.4.6.8.93,1.18.23.26.46.52.7.77.43.45.88.88,1.36,1.27.24.2.49.41.74.6.48.37.98.72,1.49,1.04.35.22.71.43,1.08.63.32.16.64.32.96.48.13.07.27.13.41.18.34.14.69.28,1.04.41.47.18.95.33,1.43.46.55.15,1.09.28,1.65.37.23.04.46.07.69.11.11.02.23.04.34.05.12.02.25.03.37.04.16.01.32.02.47.04.23.02.46.05.7.05.54,0,1.08.02,1.62-.01.3-.02.59-.03.89-.06.18-.02.35-.04.53-.06.28-.04.57-.08.85-.12.42-.07.84-.16,1.25-.26.7-.17,1.39-.38,2.06-.63.58-.22,1.15-.46,1.71-.73.46-.22.9-.47,1.33-.73.48-.29.95-.6,1.4-.93.33-.24.65-.49.96-.75.3-.25.6-.51.88-.78.49-.47.97-.96,1.4-1.48.2-.24.41-.49.6-.74.33-.43.65-.88.94-1.34.26-.41.5-.82.73-1.25.26-.49.5-.99.72-1.51.29-.69.54-1.39.74-2.1.18-.63.32-1.27.44-1.91.08-.47.14-.94.19-1.41.03-.26.05-.51.06-.77.02-.3.03-.61.03-.91,0-.25-.01-.5-.02-.74,0-.14,0-.29,0-.43-.01-.2-.03-.4-.05-.61-.02-.23-.04-.46-.07-.7-.03-.24-.07-.48-.11-.72-.06-.39-.14-.78-.23-1.17-.18-.75-.4-1.49-.67-2.22-.21-.56-.44-1.11-.7-1.64-.27-.56-.56-1.1-.89-1.62-.26-.42-.54-.84-.83-1.24-.3-.4-.6-.8-.93-1.18-.22-.25-.44-.51-.68-.75-.43-.46-.89-.89-1.38-1.3-.25-.21-.5-.41-.75-.61-.45-.35-.91-.67-1.39-.97-.39-.25-.8-.49-1.21-.7-.66-.35-1.33-.66-2.03-.93-.48-.18-.96-.35-1.45-.49-.51-.15-1.02-.28-1.54-.38-.31-.06-.62-.11-.94-.16-.17-.03-.33-.05-.5-.07-.14-.02-.29-.04-.43-.05-.16-.01-.33-.02-.49-.04-.28-.03-.56-.04-.85-.05-.51-.01-1.01-.01-1.52.02-.19.01-.39.02-.58.03,0,0,0,0-.01,0-.15.02-.31.03-.46.05-.2.02-.4.04-.59.07-.37.06-.73.13-1.1.2-.68.13-1.34.31-2,.52-.27.09-.54.19-.81.29-.47.17-.92.36-1.37.58-.34.16-.68.33-1.01.52-.34.19-.67.38-1,.59-.71.45-1.38.94-2.02,1.47-.35.29-.69.6-1.02.92-.41.39-.79.8-1.15,1.23-.21.25-.42.5-.62.76-.35.46-.69.94-1,1.43-.31.49-.6,1-.86,1.51-.31.61-.58,1.23-.82,1.87-.21.57-.4,1.14-.56,1.73-.16.6-.29,1.21-.39,1.83-.06.37-.11.73-.14,1.1-.01.12-.02.24-.03.36-.03.27-.05.54-.05.82,0,.24,0,.49,0,.73h0Zm22.69,13.45c0,.34-.06.67-.18.99-.11.28-.27.54-.46.78-.23.26-.49.47-.8.63-.23.12-.48.21-.74.25-.2.04-.4.05-.61.05-.83,0-1.67,0-2.5,0-.46,0-.9-.09-1.31-.3-.62-.32-1.06-.81-1.3-1.47-.08-.23-.13-.47-.15-.71-.01-.14-.02-.29-.02-.43,0-2.95,0-5.9,0-8.85,0-.02,0-.05,0-.07,0-.15-.1-.25-.25-.25-.41,0-.81,0-1.22,0-2.59,0-5.19,0-7.78,0-.28,0-.56-.02-.83-.09-.45-.11-.85-.33-1.19-.65-.39-.37-.63-.83-.74-1.35-.05-.21-.07-.43-.06-.65,0-.33,0-.66,0-.98-.01-.29-.02-.59-.01-.88,0-.28,0-.57.03-.85.02-.23.02-.46.08-.68.11-.42.3-.79.61-1.11.41-.43.91-.68,1.48-.8.13-.03.27-.03.4-.04.07,0,.15,0,.22,0,2.57,0,5.15,0,7.72,0,.42,0,.84,0,1.27,0,.1,0,.18-.04.24-.12.03-.03.04-.07.04-.11,0-.06,0-.13,0-.19,0-.95,0-1.9,0-2.85,0-2.01,0-4.01,0-6.02,0-.48.1-.94.32-1.36.3-.57.75-.98,1.36-1.21.28-.11.58-.17.88-.18.83-.04,1.67-.03,2.5-.02.28,0,.56.02.83.06.49.06.91.27,1.28.59.37.34.64.75.78,1.23.08.25.12.5.12.76,0,1.05,0,2.1,0,3.14,0,1.96,0,3.91,0,5.87,0,.04,0,.08,0,.12.01.17.13.28.31.28.54,0,1.08,0,1.62,0,2.46,0,4.93,0,7.39,0,.3,0,.59.03.88.12.39.12.74.31,1.04.59.33.3.56.67.71,1.09.08.25.14.51.14.77,0,.93,0,1.87,0,2.8,0,.28-.03.56-.11.84-.11.35-.27.66-.51.94-.42.5-.97.78-1.61.89-.13.02-.27.03-.4.04-.19,0-.38,0-.57,0-2.82,0-5.63,0-8.45,0-.07,0-.14,0-.21,0-.12,0-.22.09-.23.21,0,.04,0,.09,0,.13,0,1.53,0,3.06,0,4.59h0c0,1.49,0,2.97,0,4.46Z"/>
          <path class="cls-4" d="m91.03,57.28c-1.5,0-2.58-1.23-2.58-2.59,0-1.41,1.16-2.59,2.58-2.59,1.48,0,2.61,1.22,2.59,2.6.02,1.34-1.04,2.58-2.59,2.58Zm-1.67-12.43c-.1,0-.2,0-.3-.02-.36-.07-.6-.37-.61-.69,0-.17.04-.32.12-.47.37-.64.74-1.28,1.11-1.92.23-.4.47-.81.7-1.21.1-.18.25-.31.44-.38.37-.12.68.05.85.3.06.09.12.19.17.28.27.47.54.94.81,1.4.29.49.57.99.85,1.48.06.11.12.23.14.36.04.29-.05.52-.27.7-.12.09-.26.15-.41.16-.1,0-.21.02-.31.02-.54,0-1.07,0-1.61,0-.57,0-1.13,0-1.7,0Zm3.5,19.51c.12,0,.24.02.35.06.29.11.48.4.47.71,0,.14-.05.26-.12.38-.2.35-.4.71-.61,1.06-.28.48-.56.96-.84,1.44-.12.2-.23.4-.35.61-.07.12-.15.24-.27.33-.29.21-.67.16-.91-.04-.08-.07-.15-.15-.2-.24-.18-.31-.36-.63-.55-.94-.24-.41-.48-.83-.72-1.24-.19-.32-.37-.65-.56-.97-.08-.14-.12-.29-.11-.46.02-.28.16-.49.4-.61.12-.07.26-.09.4-.09.6,0,1.2,0,1.8,0,.6,0,1.19,0,1.79,0Zm8.01-11.42c0-.1,0-.2.03-.3.07-.34.37-.61.75-.59.15,0,.28.05.41.13.18.1.36.21.54.31.49.28.97.56,1.46.84.37.21.73.42,1.1.64.12.07.23.16.31.28.22.31.17.65-.07.91-.09.1-.2.17-.31.23-.2.11-.4.23-.59.34-.8.46-1.61.93-2.41,1.39-.15.09-.3.14-.48.14-.27,0-.49-.13-.62-.37-.08-.14-.11-.29-.11-.44,0-.45,0-.89,0-1.34,0-.15,0-.3,0-.45h0c0-.58,0-1.15,0-1.73Zm-19.61,3.55c0,.15-.03.29-.11.41-.21.35-.64.47-1.01.27-.21-.11-.41-.23-.62-.35-.43-.25-.87-.5-1.3-.75-.43-.25-.86-.5-1.29-.75-.16-.09-.28-.22-.35-.4-.12-.32,0-.67.23-.85.1-.08.21-.14.33-.21.79-.46,1.59-.92,2.39-1.38.17-.1.33-.2.5-.29.1-.06.2-.11.31-.14.34-.09.72.1.86.45.04.11.06.22.06.33,0,.61,0,1.21,0,1.82h0c0,.61,0,1.21,0,1.82Z"/>
          <path class="cls-4" d="m93.63,54.69c.02,1.34-1.04,2.58-2.59,2.58-1.5,0-2.58-1.23-2.58-2.59,0-1.41,1.16-2.59,2.58-2.59,1.48,0,2.61,1.22,2.59,2.6Z"/>
          <path class="cls-4" d="m91.06,44.85c-.57,0-1.13,0-1.7,0-.1,0-.2,0-.3-.02-.36-.07-.6-.37-.61-.69,0-.17.04-.32.12-.47.37-.64.74-1.28,1.11-1.92.23-.4.47-.81.7-1.21.1-.18.25-.31.44-.38.37-.12.68.05.85.3.06.09.12.19.17.28.27.47.54.94.81,1.4.29.49.57.99.85,1.48.06.11.12.23.14.36.04.29-.05.52-.27.7-.12.09-.26.15-.41.16-.1,0-.21.02-.31.02-.54,0-1.07,0-1.61,0Z"/>
          <path class="cls-4" d="m91.07,64.35c.6,0,1.19,0,1.79,0,.12,0,.24.02.35.06.29.11.48.4.47.71,0,.14-.05.26-.12.38-.2.35-.4.71-.61,1.06-.28.48-.56.96-.84,1.44-.12.2-.23.4-.35.61-.07.12-.15.24-.27.33-.29.21-.67.16-.91-.04-.08-.07-.15-.15-.2-.24-.18-.31-.36-.63-.55-.94-.24-.41-.48-.83-.72-1.24-.19-.32-.37-.65-.56-.97-.08-.14-.12-.29-.11-.46.02-.28.16-.49.4-.61.12-.07.26-.09.4-.09.6,0,1.2,0,1.8,0Z"/>
          <path class="cls-4" d="m100.87,54.66c0-.58,0-1.15,0-1.73,0-.1,0-.2.03-.3.07-.34.37-.61.75-.59.15,0,.28.05.41.13.18.1.36.21.54.31.49.28.97.56,1.46.84.37.21.73.42,1.1.64.12.07.23.16.31.28.22.31.17.65-.07.91-.09.1-.2.17-.31.23-.2.11-.4.23-.59.34-.8.46-1.61.93-2.41,1.39-.15.09-.3.14-.48.14-.27,0-.49-.13-.62-.37-.08-.14-.11-.29-.11-.44,0-.45,0-.89,0-1.34,0-.15,0-.3,0-.45h0Z"/>
          <path class="cls-4" d="m81.25,54.66c0,.61,0,1.21,0,1.82,0,.15-.03.29-.11.41-.21.35-.64.47-1.01.27-.21-.11-.41-.23-.62-.35-.43-.25-.87-.5-1.3-.75-.43-.25-.86-.5-1.29-.75-.16-.09-.28-.22-.35-.4-.12-.32,0-.67.23-.85.1-.08.21-.14.33-.21.79-.46,1.59-.92,2.39-1.38.17-.1.33-.2.5-.29.1-.06.2-.11.31-.14.34-.09.72.1.86.45.04.11.06.22.06.33,0,.61,0,1.21,0,1.82h0Z"/>
        </g>
        <path class="cls-4" d="m-36.84,54.63s0,.03,0,.04c0,.45,0,.9.04,1.35,0,.13.02.26.03.39.01.14.03.29.05.43.02.19.04.37.07.56.05.31.11.61.17.92.13.69.31,1.36.53,2.03.09.29.2.58.31.87.19.52.41,1.03.66,1.53.12.25.24.49.38.73.18.33.37.65.56.97.24.39.49.77.76,1.14.3.4.6.8.93,1.18.23.26.46.52.7.77.43.45.88.88,1.36,1.27.24.2.49.41.74.6.48.37.98.72,1.49,1.04.35.22.71.43,1.08.63.32.16.64.32.96.48.13.07.27.13.41.18.34.14.69.28,1.04.41.47.18.95.33,1.43.46.55.15,1.09.28,1.65.37.23.04.46.07.69.11.11.02.23.04.34.05.12.02.25.03.37.04.16.01.32.02.47.04.23.02.46.05.7.05.54,0,1.08.02,1.62-.01.3-.02.59-.03.89-.06.18-.02.35-.04.53-.06.28-.04.57-.08.85-.12.42-.07.84-.16,1.25-.26.7-.17,1.39-.38,2.06-.63.58-.22,1.15-.46,1.71-.73.46-.22.9-.47,1.33-.73.48-.29.95-.6,1.4-.93.33-.24.65-.49.96-.75.3-.25.6-.51.88-.78.49-.47.97-.96,1.4-1.48.2-.24.41-.49.6-.74.33-.43.65-.88.94-1.34.26-.41.5-.82.73-1.25.26-.49.5-.99.72-1.51.29-.69.54-1.39.74-2.1.18-.63.32-1.27.44-1.91.08-.47.14-.94.19-1.41.03-.26.05-.51.06-.77.02-.3.03-.61.03-.91,0-.25-.01-.5-.02-.74,0-.14,0-.29,0-.43-.01-.2-.03-.4-.05-.61-.02-.23-.04-.46-.07-.7-.03-.24-.07-.48-.11-.72-.06-.39-.14-.78-.23-1.17-.18-.75-.4-1.49-.67-2.22-.21-.56-.44-1.11-.7-1.64-.27-.56-.56-1.1-.89-1.62-.26-.42-.54-.84-.83-1.24-.3-.4-.6-.8-.93-1.18-.22-.25-.44-.51-.68-.75-.43-.46-.89-.89-1.38-1.3-.25-.21-.5-.41-.75-.61-.45-.35-.91-.67-1.39-.97-.39-.25-.8-.49-1.21-.7-.66-.35-1.33-.66-2.03-.93-.48-.18-.96-.35-1.45-.49-.51-.15-1.02-.28-1.54-.38-.31-.06-.62-.11-.94-.16-.17-.03-.33-.05-.5-.07-.14-.02-.29-.04-.43-.05-.16-.01-.33-.02-.49-.04-.28-.03-.56-.04-.85-.05-.51-.01-1.01-.01-1.52.02-.19.01-.39.02-.58.03,0,0,0,0-.01,0-.15.02-.31.03-.46.05-.2.02-.4.04-.59.07-.37.06-.73.13-1.1.2-.68.13-1.34.31-2,.52-.27.09-.54.19-.81.29-.47.17-.92.36-1.37.58-.34.16-.68.33-1.01.52-.34.19-.67.38-1,.59-.71.45-1.38.94-2.02,1.47-.35.29-.69.6-1.02.92-.41.39-.79.8-1.15,1.23-.21.25-.42.5-.62.76-.35.46-.69.94-1,1.43-.31.49-.6,1-.86,1.51-.31.61-.58,1.23-.82,1.87-.21.57-.4,1.14-.56,1.73-.16.6-.29,1.21-.39,1.83-.06.37-.11.73-.14,1.1-.01.12-.02.24-.03.36-.03.27-.05.54-.05.82,0,.24,0,.49,0,.73h0Zm22.69,13.45c0,.34-.06.67-.18.99-.11.28-.27.54-.46.78-.23.26-.49.47-.8.63-.23.12-.48.21-.74.25-.2.04-.4.05-.61.05-.83,0-1.67,0-2.5,0-.46,0-.9-.09-1.31-.3-.62-.32-1.06-.81-1.3-1.47-.08-.23-.13-.47-.15-.71-.01-.14-.02-.29-.02-.43,0-2.95,0-5.9,0-8.85,0-.02,0-.05,0-.07,0-.15-.1-.25-.25-.25-.41,0-.81,0-1.22,0-2.59,0-5.19,0-7.78,0-.28,0-.56-.02-.83-.09-.45-.11-.85-.33-1.19-.65-.39-.37-.63-.83-.74-1.35-.05-.21-.07-.43-.06-.65,0-.33,0-.66,0-.98-.01-.29-.02-.59-.01-.88,0-.28,0-.57.03-.85.02-.23.02-.46.08-.68.11-.42.3-.79.61-1.11.41-.43.91-.68,1.48-.8.13-.03.27-.03.4-.04.07,0,.15,0,.22,0,2.57,0,5.15,0,7.72,0,.42,0,.84,0,1.27,0,.1,0,.18-.04.24-.12.03-.03.04-.07.04-.11,0-.06,0-.13,0-.19,0-.95,0-1.9,0-2.85,0-2.01,0-4.01,0-6.02,0-.48.1-.94.32-1.36.3-.57.75-.98,1.36-1.21.28-.11.58-.17.88-.18.83-.04,1.67-.03,2.5-.02.28,0,.56.02.83.06.49.06.91.27,1.28.59.37.34.64.75.78,1.23.08.25.12.5.12.76,0,1.05,0,2.1,0,3.14,0,1.96,0,3.91,0,5.87,0,.04,0,.08,0,.12.01.17.13.28.31.28.54,0,1.08,0,1.62,0,2.46,0,4.93,0,7.39,0,.3,0,.59.03.88.12.39.12.74.31,1.04.59.33.3.56.67.71,1.09.08.25.14.51.14.77,0,.93,0,1.87,0,2.8,0,.28-.03.56-.11.84-.11.35-.27.66-.51.94-.42.5-.97.78-1.61.89-.13.02-.27.03-.4.04-.19,0-.38,0-.57,0-2.82,0-5.63,0-8.45,0-.07,0-.14,0-.21,0-.12,0-.22.09-.23.21,0,.04,0,.09,0,.13,0,1.53,0,3.06,0,4.59h0c0,1.49,0,2.97,0,4.46Z"/>
      </g>
    </pattern>
    <linearGradient id="linear-gradient" x1="0" y1="324" x2="5146.09" y2="324" gradientUnits="userSpaceOnUse">
      <stop offset="0" stop-color="#fff" stop-opacity=".1"/>
      <stop offset=".3" stop-color="#fff" stop-opacity=".53"/>
      <stop offset=".61" stop-color="#fff"/>
    </linearGradient>
  </defs>
  <g id="Layer_1-2" data-name="Layer 1">
    <rect class="cls-1" x="0" width="5146.09" height="648"/>
    <g>
      <rect class="cls-2" width="5146.09" height="648"/>
      <rect class="cls-5" x="0" width="5146.09" height="648"/>
    </g>
  </g>
</svg>